<?xml version="1.0" encoding="UTF-8"?>
<svg xmlns="http://www.w3.org/2000/svg" xmlns:xlink="http://www.w3.org/1999/xlink" viewBox="0 0 2880 1800">
  <defs>
    <style>
      .cls-1, .cls-2, .cls-3, .cls-4, .cls-5 {
        fill: none;
      }

      .cls-6 {
        font-size: 37px;
      }

      .cls-6, .cls-7, .cls-8, .cls-9, .cls-10, .cls-11, .cls-12 {
        fill: #ffd540;
      }

      .cls-6, .cls-13, .cls-8, .cls-14, .cls-15, .cls-16, .cls-9, .cls-17, .cls-18, .cls-19, .cls-12, .cls-20 {
        font-family: Gopher-Bold, 'Gopher Bold';
        font-weight: 700;
      }

      .cls-21 {
        letter-spacing: -.08em;
      }

      .cls-2 {
        clip-path: url(#clippath-1);
      }

      .cls-22 {
        letter-spacing: 0em;
      }

      .cls-23 {
        font-size: 53px;
      }

      .cls-23, .cls-24, .cls-13, .cls-15, .cls-25 {
        fill: #00a690;
      }

      .cls-23, .cls-25, .cls-10, .cls-11 {
        font-family: Olivita-Regular, 'Olivita Regular';
      }

      .cls-26 {
        font-family: SofiaProSoftBold-Italic, 'SofiaProSoftBold Italic';
        font-size: 94px;
        font-style: italic;
      }

      .cls-26, .cls-27, .cls-14, .cls-19, .cls-20 {
        fill: #f5f0ee;
      }

      .cls-28 {
        fill: #f5f0ef;
      }

      .cls-29 {
        fill: #ffd640;
      }

      .cls-30, .cls-16 {
        fill: #f172ac;
      }

      .cls-31 {
        fill: #202323;
      }

      .cls-32 {
        fill: #04a690;
      }

      .cls-33, .cls-17, .cls-18 {
        fill: #584ea1;
      }

      .cls-34 {
        fill: #584fa1;
      }

      .cls-13, .cls-8 {
        font-size: 51px;
      }

      .cls-14 {
        font-size: 142px;
      }

      .cls-15, .cls-16, .cls-9, .cls-20 {
        font-size: 121px;
      }

      .cls-25 {
        font-size: 50px;
      }

      .cls-35 {
        letter-spacing: 0em;
      }

      .cls-17 {
        font-size: 72px;
      }

      .cls-10 {
        font-size: 122px;
      }

      .cls-36 {
        letter-spacing: -.07em;
      }

      .cls-37 {
        letter-spacing: -.04em;
      }

      .cls-38 {
        letter-spacing: -.06em;
      }

      .cls-39 {
        letter-spacing: 0em;
      }

      .cls-11 {
        font-size: 78px;
      }

      .cls-18 {
        font-size: 47px;
      }

      .cls-19 {
        font-size: 104px;
      }

      .cls-12 {
        font-size: 40px;
      }

      .cls-3 {
        stroke: #ffd540;
      }

      .cls-3, .cls-4 {
        stroke-miterlimit: 10;
        stroke-width: 9px;
      }

      .cls-4, .cls-20 {
        stroke: #f5f0ee;
      }

      .cls-20 {
        stroke-linecap: round;
        stroke-linejoin: round;
        stroke-width: 55px;
      }

      .cls-5 {
        clip-path: url(#clippath);
      }
    </style>
    <clipPath id="clippath">
      <path class="cls-1" d="m2101.54,894.79l100.86-133.33c6.91-9.13,3.01-22.35-7.75-26.26l-92.32-33.63c-10.76-3.92-22.24,3.69-22.83,15.13l-8.53,166.97c-.86,16.75,20.46,24.51,30.58,11.14Z"/>
    </clipPath>
    <clipPath id="clippath-1">
      <path class="cls-1" d="m2251.4,701.31c16.07-44.12-9.61-94-57.35-111.39-47.76-17.4-99.49,4.28-115.56,48.4-6.12,16.81-6.18,34.45-1.26,50.81-.32.24-.64.51-.95.79-8.11,7.47-2.18,25.07,10.85,23.95,2.76-.24,4.9-1.79,6.77-3.51.81-.74,2.1-1.77,3.02-2.76.72,1.81,1.72,3.7,1.95,4.07,1.83,2.92,4.37,5.07,7.5,6.68,5.78,2.97,12.22,2.99,18.31,1.69.94-.2,2.87-1.01,3.96-.98,1.2.04,1.8-.01,2.09-.07-.08.14-.04.42.5.97.61.62.81,3.17,1.3,4.08.82,1.52,2.05,2.85,3.39,3.98,4.46,3.75,10.12,4.55,15.7,4,1.44-.14,3.04-.61,4.62-.92.01.06.01.11.02.17,2.24,11.88,13.31,12.91,23.25,11.23.52.67,1.1,1.29,1.75,1.83,2.38,1.97,5.51,2.81,8.57,2.58,1.63-.12,3.04-.89,4.39-1.74,1.36,3.26,3.62,6.12,6.84,7.64,3.05,2.16,7.05,3.42,10.7,2.58,6.6-1.51,9.06-8.23,6.63-13.51,14.91-9.39,26.71-23.24,33.02-40.56Z"/>
    </clipPath>
  </defs>
  <g id="BG">
    <rect class="cls-31" width="2880" height="1800"/>
  </g>
  <g id="Graphic">
    <g id="Computer">
      <path class="cls-28" d="m2158.23,378.55h-9.02c10.23-7.1,16.93-18.92,16.93-32.31v-173.06c0-21.71-17.6-39.31-39.31-39.31h-266.2c-21.71,0-39.31,17.6-39.31,39.31v173.06c0,13.39,6.7,25.21,16.93,32.31h-6.02c-12.92,0-23.38,10.47-23.38,23.38v68.33c0,12.92,10.47,23.38,23.38,23.38h325.99c12.92,0,23.39-10.47,23.39-23.38v-68.33c0-12.92-10.47-23.38-23.39-23.38Z"/>
      <rect class="cls-32" x="1841.61" y="152.71" width="304.25" height="209.39" rx="29.85" ry="29.85"/>
      <g>
        <rect class="cls-34" x="1862.01" y="403.7" width="13.21" height="47.56" rx="6.61" ry="6.61"/>
        <path class="cls-34" d="m1888.76,403.7c-3.65,0-6.61,2.96-6.61,6.61v34.35c0,3.65,2.96,6.61,6.61,6.61s6.61-2.96,6.61-6.61v-34.35c0-3.65-2.96-6.61-6.61-6.61Z"/>
        <path class="cls-34" d="m1908.91,403.7c-3.65,0-6.61,2.96-6.61,6.61v34.35c0,3.65,2.96,6.61,6.61,6.61s6.61-2.96,6.61-6.61v-34.35c0-3.65-2.96-6.61-6.61-6.61Z"/>
        <path class="cls-34" d="m2115.11,388.05h-242.75c-2.49,0-4.5-2.01-4.5-4.5s2.01-4.5,4.5-4.5h242.75c2.49,0,4.5,2.01,4.5,4.5s-2.01,4.5-4.5,4.5Z"/>
        <rect class="cls-34" x="2042.07" y="408.36" width="89.17" height="27.74" rx="7.46" ry="7.46"/>
      </g>
      <g>
        <ellipse class="cls-34" cx="1967.71" cy="244.2" rx="9.32" ry="15.52"/>
        <ellipse class="cls-34" cx="2022.76" cy="244.2" rx="9.32" ry="15.52"/>
        <path class="cls-34" d="m1995.23,307.28c-30.45,0-57.01-19.5-66.08-48.53-.74-2.37.58-4.9,2.95-5.64,2.37-.74,4.9.58,5.64,2.95,7.89,25.25,31,42.21,57.5,42.21s49.6-16.96,57.5-42.21c.74-2.37,3.26-3.69,5.64-2.95,2.37.74,3.69,3.27,2.95,5.64-9.08,29.03-35.63,48.53-66.08,48.53Z"/>
      </g>
      <g>
        <path class="cls-27" d="m1915.45,165.97h-46.69c-7.39,0-13.39,5.99-13.39,13.39v22.21c0,4.83,5.15,7.92,9.41,5.65l53.81-28.65c6.15-3.28,3.83-12.6-3.15-12.6Z"/>
        <path class="cls-27" d="m2123.25,305.53l-53.81,28.65c-6.15,3.28-3.83,12.6,3.15,12.6h46.69c7.39,0,13.39-5.99,13.39-13.39v-22.21c0-4.83-5.15-7.92-9.41-5.65Z"/>
      </g>
    </g>
    <g id="Global">
      <circle class="cls-32" cx="1580.04" cy="307.1" r="172.67"/>
      <path class="cls-28" d="m1712.79,234.97c-19.39-35.03-51.26-60.41-89.74-71.47-38.48-11.06-78.96-6.47-113.99,12.92-35.03,19.39-60.41,51.26-71.47,89.74-11.06,38.48-6.47,78.96,12.92,113.99s51.26,60.41,89.74,71.47c13.78,3.96,27.67,5.85,41.34,5.85,65.14,0,125.25-42.85,144.12-108.5,11.06-38.48,6.47-78.96-12.92-113.99Zm5.44,107.16l-32.47-9.33c6.8-26.17,8.3-52.56,4.52-76.86,7.17-1.69,13.73-3.94,19.62-6.72,13.33,29.17,16.27,61.64,8.33,92.91Zm-232.07-57.33l52.69,15.14c-5.41,19.34-9.78,39.23-12.65,58.01-15.84-1.61-31.2-1.27-44.93.98-3.52-23.39-1.9-48.86,4.89-74.13Zm37.43-72.48c10.4,9.14,23.18,17.53,37.38,24.55-7.16,16.55-13.82,34.99-19.62,54.42l-52.66-15.13c7.9-24.91,20.14-46.68,34.89-63.84Zm74.71,175.64c13.38,6.64,25.36,14.53,35.09,23.08-21.04,21.83-46.36,34.65-71.23,34.64-.71,0-1.42-.02-2.13-.04,7.37-5.87,15.23-15.63,23.35-29.12,5.09-8.46,10.1-18.08,14.92-28.57Zm-4.48-12.04c-9.19-4.06-18.86-7.56-28.81-10.42-9.95-2.86-20.01-5.03-29.96-6.47,2.75-17.81,6.96-37.02,12.45-56.61l65.81,18.91c-5.75,19.52-12.37,38.03-19.5,54.58Zm-43.82-82.14c5.66-18.98,12.15-36.97,19.12-53.1,9.15,4.04,18.81,7.54,28.77,10.4,9.96,2.86,19.99,5.03,29.89,6.46-2.66,17.36-6.71,36.05-11.99,55.15l-65.79-18.91Zm68.31-119.99c.62,0,1.19.08,1.72.23,5.86,1.68,11.93,14.08,11.4,43.82-.17,9.46-.99,19.82-2.4,30.79-9.48-1.37-19.1-3.45-28.66-6.2-9.56-2.75-18.81-6.09-27.58-9.97,4.63-10.05,9.43-19.27,14.31-27.37,13.97-23.2,24.94-31.31,31.21-31.31Zm17.73,7.1c17.26,10.07,30.82,27.65,39.02,50.99,1.92,5.47,3.5,11.13,4.75,16.95-12.77,2.06-27.09,2.36-41.93.88,3.66-28.4,3.58-53.42-1.85-68.82Zm-35.43-9.58c.71,0,1.42.02,2.13.04-7.37,5.87-15.23,15.63-23.35,29.12-5.03,8.36-9.98,17.85-14.75,28.19-13.33-6.61-25.28-14.46-35-22.98,20.99-21.66,46.2-34.37,70.97-34.37Zm-75.69,195.56c-3.71,28.57-3.66,53.75,1.79,69.23-17.26-10.07-30.82-27.65-39.02-50.99-1.96-5.58-3.57-11.37-4.83-17.32,12.81-2.09,27.18-2.4,42.06-.92Zm6.41,32.28c.17-9.57,1.01-20.07,2.46-31.2,9.53,1.38,19.18,3.46,28.73,6.21,9.55,2.74,18.82,6.1,27.63,9.99-4.68,10.2-9.54,19.54-14.48,27.74-15.34,25.48-27.07,32.76-32.93,31.08-5.86-1.68-11.93-14.08-11.4-43.82Zm94.38,31.05c4.95-3.95,9.69-8.28,14.21-12.96,4.19,4.29,7.77,8.67,10.72,13.09-16.58,9.31-35.01,15.3-54.22,17.35,9.97-4.09,19.81-9.92,29.29-17.47Zm13.72-25.82c-10.41-9.17-23.22-17.6-37.47-24.64,7.33-16.98,14.12-35.94,20-55.91l52.69,15.14c-7.83,25.55-20.22,47.87-35.23,65.4Zm-14.99-89.2c5.21-18.89,9.42-38.27,12.2-56.56,6.58.67,13.09,1.02,19.42,1.02,8.86,0,17.39-.66,25.38-1.96,3.51,22.91,2.07,47.84-4.34,72.63l-52.66-15.13Zm80.47-75.85c.33.6.65,1.21.98,1.82-5.16,2.42-10.93,4.4-17.25,5.92-1.33-6.24-3.02-12.31-5.08-18.17-4.9-13.94-11.6-26.01-19.81-35.91,16.8,12.02,30.86,27.73,41.16,46.35Zm-132.01-72.45c-12.21,4.04-24.3,10.7-35.85,19.92-4.86,3.88-9.52,8.12-13.96,12.7-4.55-4.64-8.39-9.38-11.48-14.17.6-.34,1.2-.69,1.8-1.03,18.61-10.3,38.86-16.15,59.48-17.42Zm-68.95,23.16c3.52,5.48,7.88,10.87,13.06,16.11-16.1,18.58-28.84,41.75-36.97,67.53l-32.47-9.33c9.87-30.72,29.6-56.66,56.38-74.31Zm-58.87,82.96l32.43,9.32c-7.18,26.66-8.86,53.6-5.07,78.38-6.73,1.6-12.94,3.7-18.54,6.26-13.74-29.44-16.85-62.31-8.81-93.95Zm13.31,102.8c-.15-.27-.29-.54-.43-.81,4.86-2.19,10.24-4,16.09-5.42,1.34,6.36,3.06,12.55,5.16,18.53,4.04,11.5,9.31,21.73,15.64,30.52-14.73-11.51-27.13-25.97-36.45-42.82Zm199.96,49.87c-3.38-5.13-7.51-10.18-12.35-15.09,16.37-18.98,29.25-42.71,37.32-69.11l32.43,9.32c-10.28,31.93-31.05,57.81-57.39,74.89Z"/>
    </g>
    <g id="Smile_with_frame" data-name="Smile with frame">
      <g>
        <circle class="cls-29" cx="922.37" cy="288.43" r="90.38" transform="translate(66.2 736.7) rotate(-45)"/>
        <path class="cls-33" d="m922.37,382.81c-52.04,0-94.38-42.34-94.38-94.38s42.34-94.38,94.38-94.38,94.38,42.34,94.38,94.38-42.34,94.38-94.38,94.38Zm0-180.75c-47.63,0-86.38,38.75-86.38,86.38s38.75,86.38,86.38,86.38,86.38-38.75,86.38-86.38-38.75-86.38-86.38-86.38Z"/>
        <ellipse class="cls-34" cx="903.55" cy="273.71" rx="6.37" ry="10.61"/>
        <ellipse class="cls-34" cx="941.19" cy="273.71" rx="6.37" ry="10.61"/>
        <circle class="cls-27" cx="868.61" cy="284.33" r="24.06"/>
        <path class="cls-34" d="m922.37,318.27c-21.45,0-40.15-13.74-46.55-34.18-.74-2.37.58-4.9,2.95-5.64,2.37-.74,4.9.58,5.64,2.95,5.21,16.67,20.46,27.87,37.96,27.87s32.75-11.2,37.96-27.87c.74-2.37,3.27-3.69,5.64-2.95,2.37.74,3.69,3.27,2.95,5.64-6.39,20.44-25.1,34.18-46.55,34.18Z"/>
      </g>
      <g>
        <circle class="cls-30" cx="1055" cy="288.43" r="90.38" transform="translate(105.05 830.48) rotate(-45)"/>
        <path class="cls-33" d="m1055,383.31c-52.31,0-94.88-42.56-94.88-94.88s42.56-94.88,94.88-94.88,94.88,42.56,94.88,94.88-42.56,94.88-94.88,94.88Zm0-180.75c-47.35,0-85.88,38.52-85.88,85.88s38.52,85.88,85.88,85.88,85.88-38.52,85.88-85.88-38.52-85.88-85.88-85.88Z"/>
        <ellipse class="cls-34" cx="1036.18" cy="273.71" rx="6.37" ry="10.61"/>
        <path class="cls-34" d="m1073.82,263.1c-3.52,0-6.37,4.75-6.37,10.61s2.85,10.61,6.37,10.61,6.37-4.75,6.37-10.61-2.85-10.61-6.37-10.61Z"/>
        <circle class="cls-27" cx="1001.75" cy="284.33" r="24.06" transform="translate(92.36 791.62) rotate(-45)"/>
        <path class="cls-34" d="m1055,318.27c-21.45,0-40.15-13.74-46.55-34.18-.74-2.37.58-4.9,2.95-5.64,2.37-.74,4.9.58,5.64,2.95,5.21,16.67,20.47,27.87,37.96,27.87s32.75-11.2,37.96-27.87c.74-2.37,3.27-3.69,5.64-2.95,2.37.74,3.69,3.27,2.95,5.64-6.39,20.44-25.1,34.18-46.55,34.18Z"/>
      </g>
      <g>
        <circle class="cls-24" cx="1187.63" cy="288.43" r="90.38"/>
        <path class="cls-33" d="m1187.63,383.31c-52.31,0-94.88-42.56-94.88-94.88s42.56-94.88,94.88-94.88,94.88,42.56,94.88,94.88-42.56,94.88-94.88,94.88Zm0-180.75c-47.35,0-85.88,38.52-85.88,85.88s38.52,85.88,85.88,85.88,85.88-38.52,85.88-85.88-38.52-85.88-85.88-85.88Z"/>
        <ellipse class="cls-34" cx="1168.81" cy="273.71" rx="6.37" ry="10.61"/>
        <ellipse class="cls-34" cx="1206.45" cy="273.71" rx="6.37" ry="10.61"/>
        <circle class="cls-27" cx="1132.38" cy="284.33" r="24.06" transform="translate(-35.04 300.17) rotate(-14.87)"/>
        <circle class="cls-27" cx="1243.16" cy="284.33" r="24.06" transform="translate(36.19 696.03) rotate(-31.72)"/>
        <path class="cls-34" d="m1187.63,318.27c-21.45,0-40.15-13.74-46.55-34.18-.74-2.37.58-4.9,2.95-5.64,2.37-.74,4.9.58,5.64,2.95,5.21,16.67,20.47,27.87,37.96,27.87s32.75-11.2,37.96-27.87c.74-2.37,3.27-3.69,5.64-2.95,2.37.74,3.69,3.27,2.95,5.64-6.39,20.44-25.1,34.18-46.55,34.18Z"/>
      </g>
      <g>
        <path class="cls-34" d="m1341.35,435.54h-572.7c-2.49,0-4.5-2.01-4.5-4.5V145.82c0-2.49,2.01-4.5,4.5-4.5h572.7c2.49,0,4.5,2.01,4.5,4.5v285.22c0,2.49-2.01,4.5-4.5,4.5Zm-568.2-9h563.7V150.32h-563.7v276.22Z"/>
        <g>
          <g>
            <rect class="cls-27" x="754.45" y="131.62" width="28.4" height="28.4" rx="5.38" ry="5.38"/>
            <rect class="cls-27" x="754.45" y="416.84" width="28.4" height="28.4" rx="5.38" ry="5.38"/>
            <rect class="cls-27" x="1040.8" y="131.62" width="28.4" height="28.4" rx="5.38" ry="5.38"/>
            <rect class="cls-27" x="754.45" y="274.23" width="28.4" height="28.4" rx="5.38" ry="5.38"/>
            <rect class="cls-27" x="1327.15" y="274.23" width="28.4" height="28.4" rx="5.38" ry="5.38"/>
            <rect class="cls-27" x="1040.8" y="416.84" width="28.4" height="28.4" rx="5.38" ry="5.38"/>
            <rect class="cls-27" x="1327.15" y="416.84" width="28.4" height="28.4" rx="5.38" ry="5.38"/>
            <rect class="cls-27" x="1327.15" y="131.62" width="28.4" height="28.4" rx="5.38" ry="5.38"/>
          </g>
          <g>
            <path class="cls-34" d="m777.48,164.52h-17.65c-5.45,0-9.88-4.43-9.88-9.88v-17.65c0-5.45,4.43-9.88,9.88-9.88h17.65c5.45,0,9.88,4.43,9.88,9.88v17.65c0,5.45-4.43,9.88-9.88,9.88Zm-17.65-28.4c-.48,0-.88.39-.88.88v17.65c0,.48.39.88.88.88h17.65c.48,0,.88-.39.88-.88v-17.65c0-.48-.39-.88-.88-.88h-17.65Z"/>
            <path class="cls-34" d="m777.48,449.74h-17.65c-5.45,0-9.88-4.43-9.88-9.88v-17.65c0-5.45,4.43-9.88,9.88-9.88h17.65c5.45,0,9.88,4.43,9.88,9.88v17.65c0,5.45-4.43,9.88-9.88,9.88Zm-17.65-28.4c-.48,0-.88.39-.88.88v17.65c0,.48.39.88.88.88h17.65c.48,0,.88-.39.88-.88v-17.65c0-.48-.39-.88-.88-.88h-17.65Z"/>
            <path class="cls-34" d="m1350.17,164.52h-17.65c-5.45,0-9.88-4.43-9.88-9.88v-17.65c0-5.45,4.43-9.88,9.88-9.88h17.65c5.45,0,9.88,4.43,9.88,9.88v17.65c0,5.45-4.43,9.88-9.88,9.88Zm-17.65-28.4c-.48,0-.88.39-.88.88v17.65c0,.48.39.88.88.88h17.65c.48,0,.88-.39.88-.88v-17.65c0-.48-.39-.88-.88-.88h-17.65Z"/>
            <path class="cls-34" d="m1063.82,164.52h-17.65c-5.45,0-9.88-4.43-9.88-9.88v-17.65c0-5.45,4.43-9.88,9.88-9.88h17.65c5.45,0,9.88,4.43,9.88,9.88v17.65c0,5.45-4.43,9.88-9.88,9.88Zm-17.65-28.4c-.48,0-.88.39-.88.88v17.65c0,.48.39.88.88.88h17.65c.48,0,.88-.39.88-.88v-17.65c0-.48-.39-.88-.88-.88h-17.65Z"/>
            <path class="cls-34" d="m777.48,307.13h-17.65c-5.45,0-9.88-4.43-9.88-9.88v-17.65c0-5.45,4.43-9.88,9.88-9.88h17.65c5.45,0,9.88,4.43,9.88,9.88v17.65c0,5.45-4.43,9.88-9.88,9.88Zm-17.65-28.4c-.48,0-.88.39-.88.88v17.65c0,.48.39.88.88.88h17.65c.48,0,.88-.39.88-.88v-17.65c0-.48-.39-.88-.88-.88h-17.65Z"/>
            <path class="cls-34" d="m1350.17,307.13h-17.65c-5.45,0-9.88-4.43-9.88-9.88v-17.65c0-5.45,4.43-9.88,9.88-9.88h17.65c5.45,0,9.88,4.43,9.88,9.88v17.65c0,5.45-4.43,9.88-9.88,9.88Zm-17.65-28.4c-.48,0-.88.39-.88.88v17.65c0,.48.39.88.88.88h17.65c.48,0,.88-.39.88-.88v-17.65c0-.48-.39-.88-.88-.88h-17.65Z"/>
            <path class="cls-34" d="m1063.82,449.74h-17.65c-5.45,0-9.88-4.43-9.88-9.88v-17.65c0-5.45,4.43-9.88,9.88-9.88h17.65c5.45,0,9.88,4.43,9.88,9.88v17.65c0,5.45-4.43,9.88-9.88,9.88Zm-17.65-28.4c-.48,0-.88.39-.88.88v17.65c0,.48.39.88.88.88h17.65c.48,0,.88-.39.88-.88v-17.65c0-.48-.39-.88-.88-.88h-17.65Z"/>
            <path class="cls-34" d="m1350.17,449.74h-17.65c-5.45,0-9.88-4.43-9.88-9.88v-17.65c0-5.45,4.43-9.88,9.88-9.88h17.65c5.45,0,9.88,4.43,9.88,9.88v17.65c0,5.45-4.43,9.88-9.88,9.88Zm-17.65-28.4c-.48,0-.88.39-.88.88v17.65c0,.48.39.88.88.88h17.65c.48,0,.88-.39.88-.88v-17.65c0-.48-.39-.88-.88-.88h-17.65Z"/>
          </g>
        </g>
      </g>
    </g>
    <g id="Eyes_on_you" data-name="Eyes on you">
      <g>
        <path class="cls-30" d="m450.24,1244.91c-113.75,0-206.29-92.54-206.29-206.29v-133.43c0-113.75,92.54-206.29,206.29-206.29s206.29,92.54,206.29,206.29v133.43c0,113.75-92.54,206.29-206.29,206.29Z"/>
        <rect class="cls-24" x="265.95" y="720.89" width="368.59" height="502.02" rx="184.29" ry="184.29"/>
        <path class="cls-27" d="m450.24,1227.41c-104.1,0-188.79-84.69-188.79-188.79v-133.43c0-104.1,84.69-188.79,188.79-188.79s188.79,84.69,188.79,188.79v133.43c0,104.1-84.69,188.79-188.79,188.79Zm0-502.02c-99.14,0-179.79,80.65-179.79,179.79v133.43c0,99.14,80.65,179.79,179.79,179.79s179.79-80.66,179.79-179.79v-133.43c0-99.14-80.65-179.79-179.79-179.79Z"/>
        <path class="cls-7" d="m472.7,1171.94c-13.68,3.52-17.82,8.04-20.89,23.43-.34,1.71-2.79,1.71-3.14,0-3.07-15.4-7.21-19.91-20.89-23.43-1.6-.41-1.6-2.68,0-3.1,13.68-3.52,17.82-8.04,20.89-23.43.34-1.71,2.79-1.71,3.14,0,3.07,15.4,7.21,19.91,20.89,23.43,1.6.41,1.6,2.68,0,3.1Z"/>
        <path class="cls-7" d="m472.7,776.07c-13.68,3.52-17.82,8.04-20.89,23.43-.34,1.71-2.79,1.71-3.14,0-3.07-15.4-7.21-19.91-20.89-23.43-1.6-.41-1.6-2.68,0-3.1,13.68-3.52,17.82-8.04,20.89-23.43.34-1.71,2.79-1.71,3.14,0,3.07,15.4,7.21,19.91,20.89,23.43,1.6.41,1.6,2.68,0,3.1Z"/>
      </g>
      <g>
        <g>
          <ellipse class="cls-28" cx="378.57" cy="889.09" rx="67.85" ry="41.61"/>
          <path class="cls-33" d="m428.9,855.83c-5.04-3.09-10.68-5.66-16.77-7.67l11.73-16.58c1.44-2.03.95-4.84-1.08-6.27-2.03-1.43-4.84-.95-6.27,1.08l-13.6,19.23c-6.31-1.42-12.95-2.27-19.76-2.54l.36-22.13c.04-2.49-1.94-4.53-4.43-4.57-.03,0-.05,0-.07,0-2.45,0-4.46,1.97-4.5,4.43l-.36,22.27c-6.87.26-13.56,1.12-19.91,2.54l-13.6-19.23c-1.43-2.03-4.24-2.51-6.27-1.08-2.03,1.44-2.51,4.24-1.08,6.27l11.73,16.58c-6.08,2.01-11.73,4.58-16.77,7.67-14.2,8.71-22.02,20.52-22.02,33.26s7.82,24.55,22.02,33.26c13.51,8.29,31.39,12.85,50.33,12.85s36.81-4.56,50.33-12.85c14.2-8.71,22.02-20.52,22.02-33.26s-7.82-24.55-22.02-33.26Zm-113.67,33.26c0-9.49,6.29-18.58,17.72-25.59,5.95-3.65,12.88-6.49,20.45-8.44.12-.03.24-.06.35-.1.5-.13,1.01-.24,1.52-.36-11.05,7.48-18.31,20.13-18.31,34.48s7.26,27,18.31,34.48c-8.29-1.95-15.88-4.94-22.32-8.89-11.43-7.01-17.72-16.1-17.72-25.59Zm108.97,25.59c-6.43,3.95-14.03,6.94-22.32,8.89,11.05-7.48,18.31-20.13,18.31-34.48s-7.26-27-18.31-34.48c.51.12,1.02.23,1.52.36.12.04.23.07.35.1,7.56,1.95,14.5,4.79,20.45,8.44,11.43,7.01,17.72,16.1,17.72,25.59s-6.29,18.58-17.72,25.59Z"/>
        </g>
        <g>
          <ellipse class="cls-28" cx="522.16" cy="889.09" rx="67.85" ry="41.61"/>
          <path class="cls-33" d="m572.48,855.83c-5.04-3.09-10.68-5.66-16.77-7.67l11.73-16.58c1.44-2.03.95-4.84-1.07-6.27-2.03-1.43-4.84-.95-6.27,1.07l-13.61,19.23c-6.31-1.42-12.95-2.27-19.76-2.54l.36-22.13c.04-2.48-1.94-4.53-4.43-4.57-2.48-.08-4.53,1.94-4.57,4.43l-.36,22.27c-6.87.26-13.56,1.12-19.91,2.54l-13.6-19.23c-1.44-2.03-4.24-2.51-6.27-1.08-2.03,1.44-2.51,4.24-1.08,6.27l11.73,16.58c-6.08,2.01-11.73,4.58-16.77,7.67-14.2,8.71-22.02,20.52-22.02,33.26s7.82,24.55,22.02,33.26c13.51,8.29,31.39,12.85,50.33,12.85s36.81-4.56,50.33-12.85c14.2-8.71,22.02-20.52,22.02-33.26s-7.82-24.55-22.02-33.26Zm-113.67,33.26c0-9.49,6.29-18.58,17.72-25.59,5.95-3.65,12.88-6.49,20.45-8.44.12-.03.24-.06.35-.1.5-.13,1.01-.24,1.52-.36-11.05,7.48-18.31,20.13-18.31,34.48s7.26,27,18.31,34.48c-8.29-1.95-15.88-4.94-22.32-8.89-11.43-7.01-17.72-16.1-17.72-25.59Zm108.97,25.59c-6.43,3.95-14.03,6.94-22.32,8.89,11.05-7.48,18.31-20.13,18.31-34.48s-7.26-27-18.31-34.48c.51.12,1.01.23,1.51.36.12.04.23.07.35.1,7.56,1.95,14.5,4.79,20.45,8.44,11.43,7.01,17.72,16.1,17.72,25.59s-6.29,18.58-17.72,25.59Z"/>
        </g>
      </g>
      <g id="Text">
        <text class="cls-11" transform="translate(394.6 999.3)"><tspan x="0" y="0">ON</tspan></text>
        <text class="cls-10" transform="translate(337.94 1106.8)"><tspan class="cls-37" x="0" y="0">Y</tspan><tspan class="cls-35" x="61.61" y="0">OU</tspan></text>
      </g>
    </g>
    <g id="Flower">
      <g>
        <path class="cls-30" d="m640.32,439.39h-17.7l12.52,12.52c12.42,12.41,18.62,28.69,18.62,44.96s-6.2,32.55-18.62,44.97c-24.84,24.83-65.1,24.83-89.94,0l-12.51-12.52v17.7c0,17.56-7.12,33.46-18.63,44.96-11.5,11.51-27.4,18.63-44.96,18.63-35.12,0-63.6-28.47-63.6-63.59v-17.7l-12.51,12.52c-12.41,12.42-28.69,18.62-44.97,18.62s-32.54-6.2-44.96-18.62c-24.84-24.84-24.84-65.1,0-89.93l12.51-12.52h-17.7c-17.56,0-33.46-7.12-44.97-18.63-11.5-11.5-18.62-27.4-18.62-44.96,0-35.12,28.47-63.59,63.59-63.59h17.7l-12.51-12.52c-12.42-12.41-18.63-28.69-18.63-44.97s6.21-32.54,18.63-44.96c24.83-24.83,65.1-24.83,89.93,0l12.52,12.52v-17.7c0-17.56,7.12-33.46,18.63-44.96,11.5-11.51,27.4-18.63,44.96-18.63,35.12,0,63.59,28.47,63.59,63.59v17.7l12.51-12.52c12.42-12.42,28.7-18.62,44.97-18.62s32.55,6.2,44.96,18.62c24.84,24.83,24.84,65.1,0,89.93l-12.51,12.52h17.7c17.56,0,33.46,7.12,44.96,18.63,11.51,11.5,18.63,27.4,18.63,44.96,0,35.12-28.47,63.59-63.59,63.59Z"/>
        <path class="cls-27" d="m612.79,428.15h-14.77l10.44,10.44c10.36,10.36,15.54,23.94,15.54,37.51s-5.18,27.16-15.54,37.52c-20.72,20.72-54.31,20.72-75.03,0l-10.44-10.44v14.76c0,14.66-5.94,27.92-15.54,37.52-9.61,9.6-22.87,15.54-37.52,15.54-29.3,0-53.06-23.75-53.06-53.06v-14.76l-10.44,10.44c-10.36,10.36-23.94,15.54-37.51,15.54s-27.16-5.18-37.52-15.54c-20.72-20.72-20.72-54.31,0-75.03l10.44-10.44h-14.76c-14.66,0-27.92-5.94-37.52-15.54-9.6-9.61-15.54-22.87-15.54-37.52,0-29.3,23.75-53.06,53.06-53.06h14.76l-10.44-10.44c-10.36-10.36-15.54-23.94-15.54-37.51s5.18-27.16,15.54-37.52c20.72-20.72,54.31-20.72,75.03,0l10.45,10.44v-14.77c0-14.65,5.94-27.91,15.54-37.51,9.6-9.6,22.86-15.54,37.51-15.54,29.3,0,53.06,23.75,53.06,53.05v14.77l10.44-10.44c10.36-10.36,23.94-15.54,37.51-15.54s27.16,5.18,37.52,15.54c20.72,20.72,20.72,54.31,0,75.03l-10.44,10.44h14.77c14.65,0,27.91,5.94,37.51,15.54,9.6,9.61,15.54,22.87,15.54,37.52,0,29.3-23.75,53.06-53.05,53.06Z"/>
      </g>
      <g>
        <circle class="cls-7" cx="469.1" cy="375.09" r="131.76" transform="translate(-127.83 441.56) rotate(-45)"/>
        <path class="cls-33" d="m469.1,511.35c-75.13,0-136.26-61.13-136.26-136.26s61.13-136.26,136.26-136.26,136.26,61.13,136.26,136.26-61.13,136.26-136.26,136.26Zm0-263.52c-70.17,0-127.26,57.09-127.26,127.26s57.09,127.26,127.26,127.26,127.26-57.09,127.26-127.26-57.09-127.26-127.26-127.26Z"/>
      </g>
      <g>
        <circle class="cls-30" cx="380.57" cy="377.8" r="38.12" transform="translate(-155.68 379.76) rotate(-45)"/>
        <circle class="cls-30" cx="557.94" cy="377.8" r="38.12" transform="translate(-103.73 505.18) rotate(-45)"/>
      </g>
      <g>
        <ellipse class="cls-34" cx="436.85" cy="359.61" rx="10.92" ry="18.19"/>
        <ellipse class="cls-34" cx="501.34" cy="359.61" rx="10.92" ry="18.19"/>
        <path class="cls-34" d="m577.27,352.73c-1.91-1.59-4.75-1.32-6.34.6-4.04,4.88-8.41,7.11-13,6.63-3.52-.37-6.05-2.21-6.15-2.29-1.95-1.51-4.76-1.16-6.29.79-1.53,1.96-1.19,4.78.77,6.32.09.07,5.57,4.25,13.1,4.25.53,0,1.07-.03,1.62-.07.13,1.97.22,3.95.22,5.95,0,50.33-40.95,91.28-91.28,91.28s-91.27-40.95-91.27-91.28c0-.63.02-1.23.03-1.85,3.78-.18,8.09-1.37,12.94-4.22,2.14-1.26,2.86-4.02,1.6-6.16-1.26-2.14-4.02-2.86-6.16-1.6-5.46,3.21-10.33,3.82-14.48,1.81-3.18-1.55-4.93-4.14-5-4.25-1.32-2.08-4.08-2.71-6.18-1.4-2.11,1.32-2.75,4.09-1.43,6.2.06.1,3.41,5.27,9.75,8-.04,1.13-.06,2.28-.06,3.46,0,55.29,44.98,100.28,100.27,100.28s100.28-44.98,100.28-100.28c0-2.95-.14-5.89-.4-8.78,2.66-1.55,5.38-3.81,8.06-7.06,1.58-1.91,1.32-4.75-.6-6.34Z"/>
      </g>
    </g>
    <g id="Everything_was_fine" data-name="Everything was fine">
      <path class="cls-7" d="m1410.61,793.01h0c-100.99,0-182.85,81.87-182.85,182.85v278.68c0,10.69,8.66,19.35,19.35,19.35h327c10.69,0,19.35-8.66,19.35-19.35v-278.68c0-100.99-81.87-182.85-182.85-182.85Z"/>
      <g>
        <g>
          <path class="cls-30" d="m1496.22,1016.05h-8.85l6.26-6.26c12.42-12.42,12.42-32.55,0-44.97h0c-12.42-12.42-32.55-12.42-44.97,0l-6.26,6.26v-8.85c0-17.56-14.24-31.8-31.8-31.8h0c-17.56,0-31.8,14.24-31.8,31.8v8.85l-6.26-6.26c-12.42-12.42-32.55-12.42-44.97,0h0c-12.42,12.42-12.42,32.55,0,44.97l6.26,6.26h-8.85c-17.56,0-31.8,14.24-31.8,31.8h0c0,17.56,14.24,31.8,31.8,31.8h8.85l-6.26,6.26c-12.42,12.42-12.42,32.55,0,44.97h0c12.42,12.42,32.55,12.42,44.97,0l6.26-6.26v8.85c0,17.56,14.24,31.8,31.8,31.8h0c17.56,0,31.8-14.24,31.8-31.8v-8.85l6.26,6.26c12.42,12.42,32.55,12.42,44.97,0h0c12.42-12.42,12.42-32.55,0-44.97l-6.26-6.26h8.85c17.56,0,31.8-14.24,31.8-31.8h0c0-17.56-14.24-31.8-31.8-31.8Zm-85.61,55.28c-3.67,0-7.18.63-10.46,1.77-1.51-3.12-3.55-6.05-6.14-8.65h0c-2.59-2.59-5.52-4.63-8.65-6.14,1.14-3.28,1.77-6.79,1.77-10.46h0c0-3.67-.63-7.18-1.77-10.46,3.12-1.51,6.05-3.55,8.65-6.14h0c2.59-2.59,4.63-5.52,6.14-8.65,3.28,1.14,6.79,1.77,10.46,1.77h0c3.67,0,7.18-.63,10.46-1.77,1.51,3.12,3.55,6.05,6.14,8.65h0c2.59,2.59,5.52,4.64,8.65,6.15-1.14,3.28-1.77,6.79-1.77,10.46h0c0,3.67.63,7.18,1.77,10.46-3.12,1.51-6.05,3.55-8.65,6.14h0c-2.59,2.59-4.63,5.52-6.14,8.65-3.28-1.14-6.79-1.77-10.46-1.77h0Z"/>
          <path class="cls-33" d="m1410.61,1169.75c-19.38,0-35.26-15.26-36.25-34.4-6.68,6.03-15.23,9.32-24.29,9.32-9.69,0-18.81-3.78-25.67-10.63-6.85-6.86-10.63-15.97-10.63-25.67,0-9.06,3.3-17.61,9.32-24.29-19.13-.99-34.4-16.87-34.4-36.25s15.26-35.26,34.4-36.25c-6.03-6.68-9.32-15.23-9.32-24.29,0-9.7,3.78-18.81,10.63-25.67,6.86-6.86,15.97-10.63,25.67-10.63,9.06,0,17.61,3.3,24.29,9.32.99-19.14,16.87-34.4,36.25-34.4s35.26,15.26,36.25,34.4c14.23-12.83,36.25-12.39,49.95,1.31,13.7,13.7,14.14,35.72,1.31,49.96,19.14.99,34.4,16.87,34.4,36.25s-15.26,35.26-34.4,36.25c6.03,6.68,9.32,15.23,9.32,24.29,0,9.69-3.78,18.81-10.63,25.66s-15.97,10.63-25.66,10.63c-9.06,0-17.61-3.3-24.29-9.32-.99,19.13-16.87,34.4-36.25,34.4Zm-31.79-49.64c.58,0,1.16.11,1.72.34,1.68.7,2.78,2.34,2.78,4.16v8.85c0,15.05,12.24,27.29,27.3,27.29s27.3-12.24,27.3-27.29v-8.85c0-1.82,1.1-3.46,2.78-4.16,1.68-.7,3.62-.31,4.9.98l6.26,6.26c5.16,5.16,12.01,7.99,19.3,7.99s14.14-2.84,19.3-7.99c5.16-5.16,7.99-12.01,7.99-19.3s-2.84-14.15-7.99-19.3l-6.26-6.26c-1.29-1.29-1.67-3.22-.98-4.9s2.34-2.78,4.16-2.78h8.85c15.05,0,27.29-12.25,27.29-27.3s-12.24-27.29-27.29-27.29h-8.85c-1.82,0-3.46-1.1-4.16-2.78-.7-1.68-.31-3.62.97-4.9l6.26-6.26c5.16-5.16,8-12.01,8-19.3s-2.84-14.14-7.99-19.3c-10.64-10.64-27.96-10.64-38.6,0l-6.26,6.26c-1.29,1.29-3.22,1.67-4.9.98-1.68-.7-2.78-2.34-2.78-4.16v-8.85c0-15.05-12.24-27.29-27.3-27.29s-27.3,12.24-27.3,27.29v8.85c0,1.82-1.1,3.46-2.78,4.16-1.68.7-3.62.31-4.9-.98l-6.26-6.26c-5.16-5.16-12.01-7.99-19.3-7.99s-14.15,2.84-19.3,7.99c-10.64,10.64-10.64,27.96,0,38.6l6.26,6.26c1.29,1.29,1.67,3.22.98,4.9-.7,1.68-2.34,2.78-4.16,2.78h-8.85c-15.05,0-27.3,12.25-27.3,27.3s12.24,27.3,27.3,27.3h8.85c1.82,0,3.46,1.1,4.16,2.78.7,1.68.31,3.62-.98,4.9l-6.26,6.26c-5.16,5.16-8,12.01-8,19.3s2.84,14.15,8,19.3c10.64,10.64,27.96,10.64,38.6,0l6.26-6.26c.86-.86,2.01-1.32,3.18-1.32Zm42.25-42.51c-.49,0-.99-.08-1.48-.25-2.9-1.01-5.92-1.52-8.98-1.52h0c-3.06,0-6.08.51-8.98,1.52-2.16.75-4.54-.23-5.53-2.29-1.33-2.76-3.11-5.25-5.27-7.42-2.17-2.17-4.66-3.94-7.42-5.27-2.06-1-3.04-3.37-2.29-5.53,1.01-2.89,1.52-5.92,1.52-8.98s-.51-6.09-1.52-8.98c-.75-2.16.23-4.54,2.29-5.53,2.76-1.33,5.26-3.11,7.42-5.28s3.94-4.66,5.27-7.42c.99-2.06,3.37-3.04,5.53-2.29,5.79,2.02,12.17,2.02,17.96,0,2.16-.75,4.54.23,5.53,2.29,1.33,2.76,3.11,5.26,5.28,7.42,2.17,2.17,4.67,3.94,7.42,5.27,2.06.99,3.04,3.37,2.29,5.53-1.01,2.89-1.52,5.92-1.52,8.98s.51,6.09,1.52,8.98c.75,2.16-.23,4.54-2.29,5.53-2.76,1.33-5.26,3.11-7.42,5.27s-3.94,4.66-5.28,7.42c-.77,1.59-2.37,2.54-4.05,2.54Zm-30.39-21.49c2.36,1.46,4.54,3.19,6.51,5.17,1.97,1.97,3.7,4.15,5.17,6.51,5.4-1.26,11.11-1.26,16.51,0,1.46-2.36,3.19-4.54,5.17-6.51,1.97-1.97,4.15-3.7,6.51-5.17-.63-2.7-.95-5.46-.95-8.26s.32-5.55.95-8.26c-2.36-1.46-4.54-3.19-6.51-5.17-1.97-1.97-3.7-4.15-5.17-6.51-5.4,1.26-11.11,1.26-16.51,0-1.46,2.36-3.19,4.54-5.17,6.51-1.97,1.97-4.15,3.7-6.51,5.17.63,2.7.95,5.47.95,8.26s-.32,5.55-.95,8.26Z"/>
        </g>
        <g>
          <circle class="cls-27" cx="1410.61" cy="1046.49" r="65.88" transform="translate(-319.08 741.32) rotate(-26.57)"/>
          <path class="cls-33" d="m1410.61,1116.87c-38.81,0-70.38-31.57-70.38-70.38s31.57-70.38,70.38-70.38,70.38,31.57,70.38,70.38-31.57,70.38-70.38,70.38Zm0-131.76c-33.85,0-61.38,27.54-61.38,61.38s27.53,61.38,61.38,61.38,61.38-27.53,61.38-61.38-27.53-61.38-61.38-61.38Z"/>
        </g>
        <path class="cls-34" d="m1410.61,1077.57c-18.66,0-34.93-11.95-40.49-29.73-.74-2.37.58-4.9,2.95-5.64,2.37-.74,4.9.58,5.64,2.95,4.38,14.01,17.2,23.42,31.9,23.42s27.52-9.41,31.9-23.42c.74-2.37,3.26-3.69,5.64-2.95,2.37.74,3.69,3.27,2.95,5.64-5.56,17.78-21.83,29.73-40.49,29.73Z"/>
        <path class="cls-34" d="m1394.49,1029.66c-3.01,0-5.46,4.07-5.46,9.09s2.44,9.09,5.46,9.09,5.46-4.07,5.46-9.09-2.44-9.09-5.46-9.09Z"/>
        <ellipse class="cls-34" cx="1426.73" cy="1038.75" rx="5.46" ry="9.09"/>
      </g>
      <g id="Text-2" data-name="Text">
        <text class="cls-25" transform="translate(1306.5 923.36) rotate(-53.21)"><tspan x="0" y="0">E</tspan></text>
        <text class="cls-25" transform="translate(1320.3 904.42) rotate(-41.46)"><tspan x="0" y="0">V</tspan></text>
        <text class="cls-25" transform="translate(1339.99 887.02) rotate(-29.87)"><tspan x="0" y="0">E</tspan></text>
        <text class="cls-25" transform="translate(1359.82 875.31) rotate(-18.4)"><tspan x="0" y="0">R</tspan></text>
        <text class="cls-25" transform="translate(1383.23 867.28) rotate(-6.59)"><tspan x="0" y="0">Y</tspan></text>
        <text class="cls-25" transform="translate(1410.09 864.3) rotate(5.59)"><tspan x="0" y="0">T</tspan></text>
        <text class="cls-25" transform="translate(1433.21 865.93) rotate(18.42)"><tspan x="0" y="0">H</tspan></text>
        <text class="cls-25" transform="translate(1462.49 876.49) rotate(28.35)"><tspan x="0" y="0">I</tspan></text>
        <text class="cls-25" transform="translate(1472.33 880.64) rotate(38.26)"><tspan x="0" y="0">N</tspan></text>
        <text class="cls-25" transform="translate(1496.78 899.66) rotate(52.61)"><tspan x="0" y="0">G</tspan></text>
        <text class="cls-23" transform="translate(1305.09 1229.75)"><tspan class="cls-38" x="0" y="0">W</tspan><tspan x="41.82" y="0">AS FINE</tspan></text>
      </g>
    </g>
    <g id="Error">
      <g id="Text_Stroke_" data-name="Text (Stroke)">
        <text class="cls-20" transform="translate(1753 1255.91)"><tspan x="0" y="0">ER</tspan><tspan class="cls-39" x="124.63" y="0">R</tspan><tspan class="cls-22" x="190.09" y="0">OR</tspan></text>
        <text class="cls-20" transform="translate(1752.73 1172.35)"><tspan x="0" y="0">ER</tspan><tspan class="cls-39" x="124.63" y="0">R</tspan><tspan class="cls-22" x="190.09" y="0">OR</tspan></text>
        <text class="cls-20" transform="translate(1753.19 1084.88)"><tspan x="0" y="0">ER</tspan><tspan class="cls-39" x="124.63" y="0">R</tspan><tspan class="cls-22" x="190.09" y="0">OR</tspan></text>
      </g>
      <g id="Text-3" data-name="Text">
        <text class="cls-9" transform="translate(1752.56 1251.87)"><tspan x="0" y="0">ER</tspan><tspan class="cls-39" x="124.63" y="0">R</tspan><tspan class="cls-22" x="190.09" y="0">OR</tspan></text>
        <text class="cls-16" transform="translate(1752.73 1168.85)"><tspan x="0" y="0">ER</tspan><tspan class="cls-39" x="124.63" y="0">R</tspan><tspan class="cls-22" x="190.09" y="0">OR</tspan></text>
        <text class="cls-15" transform="translate(1752.75 1085.65)"><tspan x="0" y="0">ER</tspan><tspan class="cls-39" x="124.63" y="0">R</tspan><tspan class="cls-22" x="190.09" y="0">OR</tspan></text>
      </g>
    </g>
    <g id="Wink_face" data-name="Wink face">
      <circle class="cls-7" cx="1131.4" cy="666.6" r="168.21" transform="translate(-139.98 995.26) rotate(-45)"/>
      <path class="cls-34" d="m1131.4,814.31c-81.45,0-147.71-66.26-147.71-147.71s66.26-147.71,147.71-147.71,147.71,66.26,147.71,147.71-66.26,147.71-147.71,147.71Zm0-286.42c-76.48,0-138.71,62.22-138.71,138.71s62.22,138.71,138.71,138.71,138.71-62.22,138.71-138.71-62.22-138.71-138.71-138.71Z"/>
      <g id="Face">
        <path class="cls-34" d="m1132.94,775.88c-60.25,0-109.27-49.02-109.27-109.28,0-2.46.08-4.84.24-7.08.18-2.48,2.34-4.34,4.81-4.17,2.48.18,4.34,2.33,4.17,4.81-.15,2.02-.22,4.19-.22,6.44,0,55.29,44.98,100.28,100.27,100.28s100.28-44.99,100.28-100.28c0-3.12-.15-6.24-.43-9.28-.23-2.47,1.58-4.67,4.06-4.9,2.46-.23,4.67,1.58,4.9,4.06.31,3.32.47,6.72.47,10.12,0,60.26-49.02,109.28-109.28,109.28Z"/>
        <ellipse class="cls-34" cx="1101.58" cy="644.51" rx="10.1" ry="16.82"/>
        <path class="cls-34" d="m1175.08,658.75c-.44,0-.88-.06-1.31-.2l-26.77-8.17c-1.76-.54-3.02-2.09-3.17-3.93-.15-1.83.83-3.58,2.47-4.4l26.77-13.39c2.22-1.11,4.93-.21,6.04,2.01,1.11,2.22.21,4.93-2.01,6.04l-16.69,8.35,15.99,4.88c2.38.73,3.72,3.24,2.99,5.62-.59,1.94-2.38,3.19-4.3,3.19Z"/>
        <path class="cls-34" d="m1032.04,664.19c-12.37,0-18.94-10.22-19.03-10.36-1.32-2.11-.68-4.88,1.43-6.2,2.1-1.31,4.86-.68,6.18,1.41.77,1.18,7.78,11.1,21.88,2.8,2.14-1.26,4.9-.55,6.16,1.6,1.26,2.14.55,4.9-1.6,6.16-5.69,3.35-10.72,4.59-15.03,4.59Z"/>
        <path class="cls-34" d="m1230.77,659.75c-8.08,0-13.95-4.48-14.05-4.56-1.96-1.53-2.3-4.36-.77-6.32,1.53-1.95,4.34-2.3,6.29-.79,1.13.85,11.1,7.78,21.53-4.82,1.58-1.91,4.42-2.18,6.34-.6,1.91,1.58,2.18,4.42.6,6.34-6.89,8.33-14.01,10.74-19.94,10.74Z"/>
      </g>
    </g>
    <g id="Message_window" data-name="Message window">
      <g>
        <path class="cls-27" d="m1401.81,1398.42v275.71c0,14.15-11.48,25.63-25.63,25.63h-404.12c-14.16,0-25.63-11.48-25.63-25.63v-275.71c0-14.15,11.47-25.63,25.63-25.63h404.12c14.15,0,25.63,11.48,25.63,25.63Z"/>
        <path class="cls-24" d="m1376.18,1368.29h-404.12c-16.61,0-30.13,13.52-30.13,30.13v275.71c0,16.61,13.52,30.13,30.13,30.13h404.12c16.61,0,30.13-13.52,30.13-30.13v-275.71c0-16.61-13.52-30.13-30.13-30.13Zm0,326.97h-404.12c-11.65,0-21.13-9.48-21.13-21.13v-235.95h446.38v235.95c0,11.65-9.48,21.13-21.13,21.13Z"/>
      </g>
      <g>
        <path class="cls-27" d="m1383.84,1376.78v275.71c0,14.15-11.48,25.63-25.63,25.63h-404.12c-14.16,0-25.63-11.48-25.63-25.63v-275.71c0-14.15,11.47-25.63,25.63-25.63h404.12c14.15,0,25.63,11.48,25.63,25.63Z"/>
        <path class="cls-30" d="m1358.21,1346.65h-404.12c-16.61,0-30.13,13.52-30.13,30.13v275.71c0,16.61,13.52,30.13,30.13,30.13h404.12c16.61,0,30.13-13.52,30.13-30.13v-275.71c0-16.61-13.52-30.13-30.13-30.13Zm0,326.97h-404.12c-11.65,0-21.13-9.48-21.13-21.13v-235.95h446.38v235.95c0,11.65-9.48,21.13-21.13,21.13Z"/>
      </g>
      <g>
        <path class="cls-27" d="m1362.44,1354.83v275.71c0,14.15-11.48,25.63-25.63,25.63h-404.12c-14.16,0-25.63-11.48-25.63-25.63v-275.71c0-14.15,11.47-25.63,25.63-25.63h404.12c14.15,0,25.63,11.48,25.63,25.63Z"/>
        <path class="cls-33" d="m1336.81,1324.7h-404.12c-16.61,0-30.13,13.52-30.13,30.13v275.71c0,16.61,13.52,30.13,30.13,30.13h404.12c16.61,0,30.13-13.52,30.13-30.13v-275.71c0-16.61-13.52-30.13-30.13-30.13Zm0,326.97h-404.12c-11.65,0-21.13-9.48-21.13-21.13v-235.95h446.38v235.95c0,11.65-9.48,21.13-21.13,21.13Z"/>
      </g>
      <g>
        <path class="cls-30" d="m1020.18,1530.01h229.15c10.04,0,18.19,8.15,18.19,18.19v47.5c0,10.04-8.15,18.19-18.19,18.19h-229.15c-10.04,0-18.19-8.15-18.19-18.19v-47.5c0-10.04,8.15-18.19,18.19-18.19Z"/>
        <path class="cls-33" d="m1249.33,1618.4h-229.15c-12.51,0-22.69-10.18-22.69-22.69v-47.5c0-12.51,10.18-22.69,22.69-22.69h229.15c12.51,0,22.69,10.18,22.69,22.69v47.5c0,12.51-10.18,22.69-22.69,22.69Zm-229.15-83.89c-7.55,0-13.69,6.14-13.69,13.69v47.5c0,7.55,6.14,13.69,13.69,13.69h229.15c7.55,0,13.69-6.14,13.69-13.69v-47.5c0-7.55-6.14-13.69-13.69-13.69h-229.15Z"/>
      </g>
      <g>
        <path class="cls-7" d="m1302.69,1627.07l-9.91,7.08c-1.45,1.04-1.78,3.05-.75,4.5l16.41,22.96c1.04,1.45.7,3.46-.75,4.5l-8.98,6.42c-1.45,1.04-3.46.7-4.5-.75l-16.41-22.96c-1.04-1.45-3.05-1.78-4.5-.75l-9.91,7.08c-2.74,1.96-6.59.5-7.34-2.78l-14.07-61.24c-.95-4.09,3.51-7.28,7.09-5.06l53.37,33.15c2.86,1.78,2.99,5.89.25,7.85Z"/>
        <path class="cls-33" d="m1296.85,1677.63c-.43,0-.85-.04-1.28-.11-2.04-.34-3.82-1.45-5.02-3.13l-15.67-21.92-8.88,6.34c-2.51,1.8-5.73,2.22-8.62,1.12-2.89-1.09-5.03-3.54-5.72-6.55l-14.07-61.24c-.84-3.63.58-7.39,3.61-9.56,3.04-2.18,7.05-2.31,10.23-.34l53.38,33.15c2.63,1.64,4.25,4.45,4.35,7.54.1,3.08-1.34,6-3.86,7.79l-8.87,6.34,15.67,21.92c1.2,1.68,1.67,3.72,1.34,5.76s-1.45,3.82-3.13,5.02l-8.98,6.42c-1.32.95-2.88,1.44-4.48,1.44Zm-21.69-34.66c.43,0,.86.04,1.29.11,2.04.34,3.82,1.45,5.02,3.13l15.67,21.92,6.91-4.94-15.67-21.92c-1.2-1.68-1.67-3.72-1.33-5.76.34-2.04,1.45-3.82,3.13-5.02l9.9-7.08h0s.1-.07.09-.19c0-.12-.06-.15-.11-.18l-53.37-33.14c-.08-.05-.13-.08-.25,0-.11.08-.1.12-.08.22l14.07,61.24s.03.11.14.15c.11.04.17,0,.21-.03l9.91-7.08c1.32-.95,2.88-1.44,4.47-1.44Zm29.62,21.26h0,0Z"/>
      </g>
      <path class="cls-27" d="m1330.02,1361.9l10.83-10.08c1.82-1.69,1.92-4.54.23-6.36-1.69-1.82-4.54-1.92-6.36-.23l-11.3,10.52-11.3-10.52c-1.82-1.69-4.67-1.59-6.36.23-1.69,1.82-1.59,4.67.23,6.36l10.83,10.08-10.83,10.08c-1.82,1.69-1.92,4.54-.23,6.36.89.95,2.09,1.43,3.29,1.43,1.1,0,2.2-.4,3.07-1.21l11.3-10.52,11.3,10.52c.87.81,1.97,1.21,3.07,1.21,1.21,0,2.41-.48,3.29-1.43,1.69-1.82,1.59-4.67-.23-6.36l-10.83-10.08Z"/>
      <g id="Text-4" data-name="Text">
        <text class="cls-17" transform="translate(1078.48 1491.18)"><tspan x="0" y="0">ME?</tspan></text>
        <text class="cls-18" transform="translate(1050.27 1587.17)"><tspan x="0" y="0">CHOOSE</tspan></text>
      </g>
    </g>
    <g id="Good_to_you" data-name="Good to you">
      <circle class="cls-30" cx="934.82" cy="1047.84" r="203.54"/>
      <g>
        <path class="cls-27" d="m987.77,1010.34s-34.19-8.84-41.28-32.23c-3.12-10.3,2.95-44.83-26.09-44.84-6.44,0-16.35,1.95-22.79,11.48-4.46,6.61-6.37,14.37-6.51,20.09l-.26,25.82c-1.74,10.34-12.34,10.4-17.03,10.71-8.35.54-21,2.04-28.27,6.19-13.5,7.71-14.97,23.56-13.49,31.49.89,4.76,2.25,12.08,8.84,18.64h0c-6.53,0-14.01,18.89,1.43,30.43h0s-8.27,18.75,10.26,28.53h-.02s-4.58,23.71,25.91,24c7.93.07,26.59-5.75,32.2-9.44,3.99-2.63,6.38-6.05,7-9.38l.17.4s43.3,7.34,70.16-6.21l-.21-105.67Zm-78.29,100.49h0c.88-.99,1.63-2.05,2.25-3.17l2.21,5.28c-1.2-.86-2.68-1.58-4.45-2.1Z"/>
        <path class="cls-33" d="m1033.68,1001.65h-43.19c-2.53,0-4.81,1.08-6.41,2.8-9.13-3.25-28.5-11.86-33.29-27.64-.55-1.82-.78-5.27-1.03-8.92-.92-13.67-2.64-39.1-29.37-39.11h-.01c-6.51,0-18.6,1.75-26.51,13.47-4.38,6.48-7.1,14.89-7.28,22.56l-.26,25.44c-.99,5-5.02,6.19-12.03,6.6l-.8.05c-9.44.61-22.35,2.28-30.21,6.77-16.04,9.16-17.28,27.7-15.68,36.24.77,4.15,1.94,10.4,6.32,16.58-2.59,2.69-4.48,6.81-5.06,11.6-.85,7.04,1.27,15.1,8.2,21.52-1.1,4.05-2.19,11.25.97,18.4,1.98,4.47,5.25,8.19,9.77,11.1-.1,3.9.55,10.56,5.21,16.26,5.21,6.38,13.75,9.67,25.38,9.78.06,0,.12,0,.19,0,9.07,0,28.22-6.03,34.53-10.19,3.27-2.16,5.77-4.86,7.33-7.8,4.64.62,13.53,1.57,24.04,1.57,11.99,0,26.08-1.26,38.37-5.67,1.51,2.65,4.36,4.44,7.62,4.44h43.19c4.85,0,8.78-3.93,8.78-8.78v-108.29c0-4.85-3.93-8.78-8.78-8.78Zm-195.95,70.27c-.24-4.1,1.18-7.35,2.37-8.86,9.15,7.56,25.39,13.69,54.82,13.7h.02c5.34,0,9.22-.84,12.53-2.32.21,5.4-1.23,9.66-4.31,12.69-7.22,7.1-24.04,8.27-45,3.15-5.85-1.43-10.05-3.44-13.06-5.66-.09-.08-.19-.15-.29-.22-5.55-4.23-6.9-9.2-7.09-12.47Zm8.58,32.51c-1.46-3.25-1.51-6.63-1.17-9.32,3.11,1.56,6.72,2.89,10.89,3.91,9.44,2.31,18.04,3.45,25.61,3.45,11.35,0,20.38-2.58,26.44-7.66,1.82,4.84,1.32,8.97-1.52,12.52-7.51,9.37-30.27,13.01-46.82,7.48-6.84-2.28-11.36-5.78-13.42-10.38Zm61.87,23.01c-4.96,3.27-22.46,8.7-29.56,8.7-.04,0-.08,0-.13,0-8.78-.08-14.99-2.24-18.44-6.41-1.65-2-2.49-4.26-2.89-6.3,6.05,1.98,12.95,3.01,19.92,3.01,3.71,0,7.44-.29,11.07-.88,9.35-1.51,17.12-4.82,22.39-9.46,1.3.72,2.5,1.8,2.74,3.4.38,2.53-1.62,5.65-5.1,7.94Zm73.54-13.56c-20.75,8.26-49.51,5.67-59.53,4.41,0-.04,0-.07-.01-.11-.56-3.78-2.7-6.98-6.08-9.22,2.39-4.93,3.59-12.44-1.91-22.18,1.97-4.33,3.03-10.19,1.72-17.97,3.81-3.3,6.03-6.65,7.85-13.6,1.16-4.44.89-9.46-.84-15.36-2.35-8.05-7.75-13.21-15.59-14.94-15.23-3.35-29.23-4.04-29.82-4.06-2.49-.09-4.59,1.8-4.71,4.28-.12,2.48,1.8,4.59,4.28,4.71.14,0,13.86.69,28.31,3.86,4.57,1,7.47,3.84,8.89,8.67,1.25,4.29,1.51,7.75.77,10.56-1.53,5.84-2.76,7.41-6.87,10.56-3.68,2.83-6.74,4.26-13.24,4.26h-.02c-52.96-.03-56.68-19.94-58.47-29.54-.95-5.1-.78-19.86,11.3-26.75,4.97-2.84,14.32-4.83,26.33-5.61l.74-.04c4.98-.29,18.2-1.07,20.44-14.41.04-.23.06-.46.06-.7l.26-25.76c.11-4.6,1.67-11.66,5.74-17.68,5.58-8.27,14.33-9.5,19.05-9.5h0c16.97,0,19.22,13.32,20.39,30.72.29,4.36.55,8.13,1.4,10.93,6.1,20.1,29.25,30.18,39.53,33.75v100.71Z"/>
      </g>
      <g>
        <path class="cls-7" d="m1077.96,1150.42c-.9,0-1.81-.27-2.59-.83-2.03-1.44-2.51-4.24-1.08-6.27,20.05-28.34,30.64-61.74,30.64-96.58s-10.08-66.56-29.15-94.43c-1.4-2.05-.88-4.85,1.17-6.26,2.05-1.4,4.85-.88,6.25,1.17,20.1,29.37,30.73,63.78,30.73,99.51s-11.17,71.91-32.3,101.78c-.88,1.24-2.27,1.9-3.68,1.9Z"/>
        <path class="cls-7" d="m797.02,1150.42c-1.41,0-2.8-.66-3.68-1.9-21.13-29.85-32.3-65.05-32.3-101.78s10.62-70.15,30.72-99.51c1.4-2.05,4.2-2.57,6.25-1.17,2.05,1.4,2.58,4.2,1.17,6.26-19.07,27.86-29.14,60.51-29.14,94.43s10.6,68.25,30.64,96.58c1.44,2.03.96,4.84-1.07,6.27-.79.56-1.7.83-2.6.83Z"/>
      </g>
      <g id="Text-5" data-name="Text">
        <text class="cls-12" transform="translate(831.07 932.81) rotate(-38.01)"><tspan x="0" y="0">G</tspan></text>
        <text class="cls-12" transform="translate(850.52 917.41) rotate(-28.6)"><tspan x="0" y="0">O</tspan></text>
        <text class="cls-12" transform="translate(873.75 904.64) rotate(-18.82)"><tspan x="0" y="0">O</tspan></text>
        <text class="cls-12" transform="translate(898.84 896.04) rotate(-9.18)"><tspan x="0" y="0">D</tspan></text>
        <text class="cls-12" transform="translate(924.5 892.35) rotate(-3)"><tspan x="0" y="0"> </tspan></text>
        <text class="cls-12" transform="translate(930.82 891.72) rotate(1.35)"><tspan x="0" y="0">T</tspan></text>
        <text class="cls-12" transform="translate(948.76 891.74) rotate(9.3)"><tspan x="0" y="0">O</tspan></text>
        <text class="cls-12" transform="translate(975.15 896.56) rotate(15.7)"><tspan x="0" y="0"> </tspan></text>
        <text class="cls-12" transform="translate(981.15 897.86) rotate(20.41)"><tspan x="0" y="0">Y</tspan></text>
        <text class="cls-12" transform="translate(999.38 904.24) rotate(28.62)"><tspan x="0" y="0">O</tspan></text>
        <text class="cls-12" transform="translate(1022.68 916.94) rotate(38.05)"><tspan x="0" y="0">U</tspan></text>
        <text class="cls-12" transform="translate(817.51 1185.5) rotate(36.59)"><tspan x="0" y="0">G</tspan></text>
        <text class="cls-12" transform="translate(840.54 1202.41) rotate(27.4)"><tspan x="0" y="0">O</tspan></text>
        <text class="cls-12" transform="translate(867.66 1216.2) rotate(17.85)"><tspan x="0" y="0">O</tspan></text>
        <text class="cls-12" transform="translate(896.63 1225.25) rotate(8.47)"><tspan x="0" y="0">D</tspan></text>
        <text class="cls-12" transform="translate(924.78 1228.87) rotate(2.46)"><tspan x="0" y="0"> </tspan></text>
        <text class="cls-12" transform="translate(932.85 1229.44) rotate(-1.77)"><tspan x="0" y="0">T</tspan></text>
        <text class="cls-12" transform="translate(953.97 1228.97) rotate(-9.52)"><tspan x="0" y="0">O</tspan></text>
        <text class="cls-12" transform="translate(982.85 1223.5) rotate(-15.77)"><tspan x="0" y="0"> </tspan></text>
        <text class="cls-12" transform="translate(990.62 1221.6) rotate(-20.35)"><tspan x="0" y="0">Y</tspan></text>
        <text class="cls-12" transform="translate(1011.87 1213.86) rotate(-28.37)"><tspan x="0" y="0">O</tspan></text>
        <text class="cls-12" transform="translate(1038.38 1199.22) rotate(-37.55)"><tspan x="0" y="0">U</tspan></text>
      </g>
    </g>
    <g id="New">
      <path class="cls-30" d="m2433.15,1696.93c-20.83,0-39.61-9.91-51.52-27.19l-2.59-3.76c-2.86-4.15-8.68-4.91-12.51-1.64l-3.48,2.96c-11.58,9.87-25.62,15.09-40.6,15.09-18.52,0-36.69-8.53-48.6-22.83-11.87-14.25-16.74-33-13.35-51.43l.83-4.49c.91-4.95-2.66-9.61-7.68-10.01l-4.55-.36c-26.85-2.14-48.71-20.34-55.69-46.35-6.98-26.02,2.84-52.71,25.02-68l3.76-2.59c4.15-2.86,4.91-8.68,1.64-12.51l-2.96-3.47c-16.08-18.87-19.63-44.55-9.26-67.01,10.42-22.57,32.19-36.6,56.82-36.6,3.86,0,7.77.36,11.61,1.07l4.49.82c4.95.91,9.61-2.66,10.01-7.68l.36-4.55c2.63-32.99,29.64-57.86,62.82-57.86,20.83,0,39.61,9.91,51.53,27.19l2.59,3.76c2.86,4.15,8.68,4.91,12.51,1.64l3.48-2.96c11.58-9.87,25.62-15.09,40.6-15.09,18.52,0,36.69,8.53,48.59,22.83,11.87,14.25,16.74,32.99,13.35,51.43l-.83,4.49c-.91,4.95,2.66,9.61,7.68,10.01l4.55.36c26.85,2.14,48.71,20.34,55.68,46.35,6.98,26.02-2.84,52.71-25.02,68l-3.76,2.59c-4.15,2.86-4.91,8.68-1.64,12.51l2.96,3.48c16.08,18.87,19.63,44.54,9.26,67.01-10.42,22.58-32.19,36.6-56.82,36.6-3.87,0-7.77-.36-11.62-1.06l-4.49-.83c-4.95-.91-9.61,2.66-10.01,7.68l-.36,4.55c-2.63,32.98-29.64,57.86-62.82,57.86h0Z"/>
      <path class="cls-24" d="m2433.15,1676.93c-14.15,0-26.93-6.76-35.06-18.54l-18.74-27.17c-.73-1.06-1.79-1.22-2.35-1.22-.69,0-1.28.22-1.81.68l-25.12,21.41c-7.92,6.74-17.47,10.31-27.63,10.31-12.65,0-25.08-5.84-33.23-15.63-8.06-9.67-11.36-22.44-9.04-35.02l5.96-32.46c.15-.81-.02-1.55-.51-2.2-.52-.7-1.38-1.08-2.25-1.15l-32.69-2.61c-18.3-1.46-33.2-13.86-37.96-31.6-4.76-17.73,1.94-35.93,17.05-46.35l27-18.62c.72-.5,1.27-1.25,1.38-2.12.1-.81-.12-1.54-.66-2.16l-21.41-25.12c-10.96-12.87-13.39-30.36-6.33-45.66,7.11-15.41,21.93-24.98,38.66-24.98,2.65,0,5.34.25,8,.74l32.46,5.96c.19.03.37.05.55.05,1.26,0,2.65-.98,2.78-2.61l2.62-32.9c1.79-22.49,20.23-39.45,42.89-39.45,14.16,0,26.94,6.76,35.06,18.54l18.74,27.17c.73,1.06,1.79,1.22,2.35,1.22.68,0,1.28-.22,1.81-.68l25.12-21.41c7.92-6.75,17.47-10.31,27.63-10.31,12.65,0,25.08,5.84,33.23,15.63,8.06,9.67,11.36,22.44,9.04,35.02l-5.94,32.33c-.14.78-.02,1.61.43,2.26.52.73,1.22,1.14,2.1,1.21l32.9,2.63c14.18,1.13,26.32,8.83,33.28,20.49,11.72,19.64,5.54,45.1-13.29,58.09l-26.08,17.99c-.72.5-1.27,1.25-1.38,2.12-.1.81.12,1.54.66,2.17l21.41,25.12c10.96,12.86,13.39,30.36,6.33,45.65-7.11,15.41-21.93,24.98-38.66,24.99-2.65,0-5.34-.25-8-.74l-32.46-5.96c-.19-.03-.37-.05-.55-.05-1.26,0-2.65.98-2.78,2.61l-2.62,32.9c-1.79,22.49-20.23,39.45-42.89,39.45h0Z"/>
      <path class="cls-7" d="m2428.65,1370l25.12-21.41c16.35-13.93,41.14.37,37.26,21.5l-5.96,32.46c-2.44,13.3,7.15,25.8,20.64,26.88l32.9,2.63c21.41,1.71,28.83,29.35,11.14,41.55l-27.17,18.74c-11.14,7.68-13.19,23.3-4.42,33.6l21.41,25.12c13.93,16.35-.37,41.14-21.5,37.26l-32.46-5.96c-13.3-2.44-25.8,7.15-26.88,20.64l-2.63,32.9c-1.71,21.41-29.35,28.83-41.55,11.14l-18.74-27.17c-7.68-11.14-23.3-13.19-33.6-4.42l-25.12,21.41c-16.35,13.93-41.14-.37-37.26-21.5l5.96-32.46c2.44-13.3-7.15-25.8-20.64-26.88l-32.9-2.63c-21.41-1.71-28.83-29.35-11.14-41.55l27.17-18.74c11.14-7.68,13.19-23.3,4.42-33.6l-21.41-25.12c-13.93-16.35.37-41.14,21.5-37.26l32.46,5.96c13.3,2.44,25.8-7.15,26.88-20.64l2.63-32.9c1.71-21.41,29.35-28.83,41.55-11.14l18.74,27.17c7.68,11.14,23.3,13.19,33.6,4.42Z"/>
      <g id="Text-6" data-name="Text">
        <g>
          <path class="cls-33" d="m2296.96,1496.99c0-5.35,1.74-7.93,4.82-8.01.9-.02,1.48.11,2.38.07,1.35-.05,2.04-.66,2.19-2.16.09-.89.26-3.38.26-7.43s-.17-6.43-.32-7.93c-.11-1.13-.39-2.04-1.86-1.98-.77.03-1.61.29-2.38.31-2.51.07-4.89-2.83-4.89-8.49,0-5.04,1.74-8.44,6.18-8.6,1.41-.05,3.47.24,5.27.12,2.57-.16,4.18-.67,7.14-.95,2.51-.24,3.8.75,5.15,3.12,5.33,9.09,7.99,13.56,13.31,22.38v-9.32c0-2.22-.73-2.57-2.19-2.7-2.28-.19-3.86-2.31-3.86-6.66,0-5.73,2.25-8.65,5.92-9.27,1.16-.19,3.34-.19,6.05-.69,2.51-.47,5.27-1.41,6.43-1.64,3.92-.8,6.3.73,6.3,8.14,0,4.51-1.67,7.93-3.79,8.38-.64.14-1.22.03-1.87.16-.9.19-.96.66-.96,2.87v18.42c0,2.37.39,4.58.39,7.72,0,4.43-2.51,7.33-6.69,8.11-4.37.82-6.11-.05-9.01-4.79-4.91-8-7.37-12.05-12.29-20.29,0,3.7,0,5.55,0,9.25,0,1.76.52,2.32,2.25,2.27,3.6-.12,4.95,2.65,4.95,7.24,0,5.73-2.06,8.95-6.17,9.42-1.87.21-5.02-.23-7.91,0-3.73.29-5.98,1.16-8.55,1.25-4.25.15-6.24-2.64-6.24-8.3Z"/>
          <path class="cls-33" d="m2354.65,1489.45c0-5.27,1.74-8.25,5.34-9.09.96-.22,2.06-.33,3.02-.56,1.41-.34,1.92-.93,2.12-2.8.18-1.72.32-5.35.32-8.25,0-3.13-.14-6.17-.32-8.02-.14-1.41-.58-1.77-1.74-1.5-1.09.26-2.32.7-3.41.95-3.6.84-5.34-1.38-5.34-6.66,0-5.66,1.99-8.92,6.05-9.86,3.92-.92,5.47-.52,11.9-2.11,7.72-1.91,16.02-4.8,21.23-6.11,4.7-1.18,6.3.19,6.3,5.47,0,2.6-.19,4.4-.19,6.62,0,1.84.19,3.62.19,5.38,0,3.06-1.35,5.37-5.4,6.38-3.73.93-5.28-.57-5.85-3.27-.49-2.28-1.22-3.13-6.05-1.91-4.44,1.12-5.28,1.56-5.28,4.39s.52,2.93,2.44,2.44c1.54-.39,3.67-1.46,4.5-1.67,1.67-.42,2.32.41,2.32,4.15,0,3.97-.64,5.51-2.51,5.99-.71.18-3.15-.12-4.95.33-1.42.36-1.8,1.07-1.8,3.43,0,2.98.45,3.25,4.76,2.16,4.82-1.22,5.57-2.15,6.5-5.16.92-2.97,2.32-4.87,5.85-5.75,3.86-.97,5.66.51,5.66,4.02,0,1.61-.26,3.2-.26,5.18,0,1.61.06,2.89.06,4.95,0,6.19-2.25,8.72-7.53,10.05-6.82,1.71-14.99,3.03-20.65,4.43-5.53,1.37-7.72,2.65-11.45,3.52-3.86.9-5.85-1.49-5.85-7.15Z"/>
          <path class="cls-33" d="m2411.57,1472.65c-1.16-9.3-1.74-13.95-2.89-23.25-.13-.96-.45-1.12-1.09-.96-.32.08-.64.23-1.03.32-2.64.63-3.67-2.25-3.67-7.07,0-5.43,2.38-8.53,6.3-9.45,2.38-.56,4.31-.77,6.95-1.36,2.12-.47,3.67-1.03,5.28-1.37,3.99-.84,6.75,1.62,6.75,6.97,0,4.89-2.11,7.54-4.5,8.31-.92.3-1.09.61-.97,1.73.67,6.34,1,9.51,1.67,15.86.06.83.13,1.12.45,1.05.26-.05.32-.22.52-1.17,1.72-9.7,2.59-14.55,4.31-24.23,1.41-7.91,1.93-10.9,8.55-11.97,5.98-.97,6.75,1.97,8.3,9.26,1.93,9.04,2.89,13.57,4.82,22.65.19.97.26,1.19.52,1.17.26-.03.32-.42.39-1.34.9-6.52,1.35-9.77,2.25-16.28.13-.85.06-1.38-.77-1.45-2.51-.51-4.7-2.16-4.7-7.28,0-5.12,2.38-8.25,6.05-8.6,1.67-.16,3.22-.06,5.21-.2,2.44-.17,4.18-.49,6.24-.56,4.25-.16,6.82,2.39,6.82,7.82,0,4.74-1.74,7.87-3.99,7.92-.45.01-.77-.06-1.22-.05-.58.02-.9.33-1.16,2.33-1.16,8.69-1.74,13.04-2.89,21.75-1.22,9.16-4.12,13.06-11,13.77-5.85.6-9.71-.64-11.45-8.71-1.39-6.73-2.08-10.09-3.47-16.81-.06-.07-.13-.06-.19-.05-.06.01-.19.03-.19.11-1.26,7.21-1.89,10.81-3.15,18.03-1.48,8.51-4.76,10.81-11.77,12.26-6.37,1.32-10.16-.08-11.26-9.15Z"/>
        </g>
        <g>
          <path class="cls-33" d="m2316.78,1559.96c0-5.35,1.74-7.93,4.82-8.01.9-.02,1.48.11,2.38.07,1.35-.05,2.04-.66,2.19-2.16.09-.89.26-3.38.26-7.43s-.17-6.43-.32-7.93c-.11-1.13-.39-2.04-1.86-1.98-.77.03-1.61.29-2.38.31-2.51.07-4.89-2.83-4.89-8.49,0-5.04,1.74-8.44,6.18-8.6,1.41-.05,3.47.24,5.27.12,2.57-.16,4.18-.67,7.14-.95,2.51-.24,3.8.75,5.15,3.12,5.33,9.09,7.99,13.56,13.31,22.38v-9.32c0-2.22-.73-2.57-2.19-2.7-2.28-.19-3.86-2.31-3.86-6.66,0-5.73,2.25-8.65,5.92-9.27,1.16-.19,3.34-.19,6.05-.69,2.51-.47,5.27-1.41,6.43-1.64,3.92-.8,6.3.73,6.3,8.14,0,4.51-1.67,7.93-3.79,8.38-.64.14-1.22.03-1.87.16-.9.19-.96.66-.96,2.87v18.42c0,2.37.39,4.58.39,7.72,0,4.43-2.51,7.33-6.69,8.11-4.37.82-6.11-.05-9.01-4.79-4.91-8-7.37-12.05-12.29-20.29,0,3.7,0,5.55,0,9.25,0,1.76.52,2.32,2.25,2.27,3.6-.12,4.95,2.65,4.95,7.24,0,5.73-2.06,8.95-6.17,9.42-1.87.21-5.02-.23-7.91,0-3.73.29-5.98,1.16-8.55,1.25-4.25.15-6.24-2.64-6.24-8.3Z"/>
          <path class="cls-33" d="m2374.48,1552.42c0-5.27,1.74-8.25,5.34-9.09.96-.22,2.06-.33,3.02-.56,1.41-.34,1.92-.93,2.12-2.8.18-1.72.32-5.35.32-8.25,0-3.13-.14-6.17-.32-8.02-.14-1.41-.58-1.77-1.74-1.5-1.09.26-2.32.7-3.41.95-3.6.84-5.34-1.38-5.34-6.66,0-5.66,1.99-8.92,6.05-9.86,3.92-.92,5.47-.52,11.9-2.11,7.72-1.91,16.02-4.8,21.23-6.11,4.7-1.18,6.3.19,6.3,5.47,0,2.6-.19,4.4-.19,6.62,0,1.84.19,3.62.19,5.38,0,3.06-1.35,5.37-5.4,6.38-3.73.93-5.28-.57-5.85-3.27-.49-2.28-1.22-3.13-6.05-1.91-4.44,1.12-5.28,1.56-5.28,4.39s.52,2.93,2.44,2.44c1.54-.39,3.67-1.46,4.5-1.67,1.67-.42,2.32.41,2.32,4.15,0,3.97-.64,5.51-2.51,5.99-.71.18-3.15-.12-4.95.33-1.42.36-1.8,1.07-1.8,3.43,0,2.98.45,3.25,4.76,2.16,4.82-1.22,5.57-2.15,6.5-5.16.92-2.97,2.32-4.87,5.85-5.75,3.86-.97,5.66.51,5.66,4.02,0,1.61-.26,3.2-.26,5.18,0,1.61.06,2.89.06,4.95,0,6.19-2.25,8.72-7.53,10.05-6.82,1.71-14.99,3.03-20.65,4.43-5.53,1.37-7.72,2.65-11.45,3.52-3.86.9-5.85-1.49-5.85-7.15Z"/>
          <path class="cls-33" d="m2431.4,1535.62c-1.16-9.3-1.74-13.95-2.89-23.25-.13-.96-.45-1.12-1.09-.96-.32.08-.64.23-1.03.32-2.64.63-3.67-2.25-3.67-7.07,0-5.43,2.38-8.53,6.3-9.45,2.38-.56,4.31-.77,6.95-1.36,2.12-.47,3.67-1.03,5.28-1.37,3.99-.84,6.75,1.62,6.75,6.97,0,4.89-2.11,7.54-4.5,8.31-.92.3-1.09.61-.97,1.73.67,6.34,1,9.51,1.67,15.86.06.83.13,1.12.45,1.05.26-.05.32-.22.52-1.17,1.72-9.7,2.59-14.55,4.31-24.23,1.41-7.91,1.93-10.9,8.55-11.97,5.98-.97,6.75,1.97,8.3,9.26,1.93,9.04,2.89,13.57,4.82,22.65.19.97.26,1.19.52,1.17.26-.03.32-.42.39-1.34.9-6.52,1.35-9.77,2.25-16.28.13-.85.06-1.38-.77-1.45-2.51-.51-4.7-2.16-4.7-7.28,0-5.12,2.38-8.25,6.05-8.6,1.67-.16,3.22-.06,5.21-.2,2.44-.17,4.18-.49,6.24-.56,4.25-.16,6.82,2.39,6.82,7.82,0,4.74-1.74,7.87-3.99,7.92-.45.01-.77-.06-1.22-.05-.58.02-.9.33-1.16,2.33-1.16,8.69-1.74,13.04-2.89,21.75-1.22,9.16-4.12,13.06-11,13.77-5.85.6-9.71-.64-11.45-8.71-1.39-6.73-2.08-10.09-3.47-16.81-.06-.07-.13-.06-.19-.05-.06.01-.19.03-.19.11-1.26,7.21-1.89,10.81-3.15,18.03-1.48,8.51-4.76,10.81-11.77,12.26-6.37,1.32-10.16-.08-11.26-9.15Z"/>
        </g>
      </g>
    </g>
    <g id="V_sign" data-name="V sign">
      <path class="cls-33" d="m775.64,802.02c-5.67,0-11.63-.45-17.7-1.35-34.35-5.07-58.21-18.98-70.92-41.32-14.04-24.67-9.57-52.03-5.62-66.25-4.06-8.04-6.11-15.28-6.54-16.91-.53-1.93-2.09-8.45-1.44-16.21,1.14-13.46,8.46-24.46,20.08-30.17,3.16-1.55,6.36-2.66,9.6-3.33,3.56-6.96,9.21-12.54,16.65-16.19,3.67-1.8,7.4-3.04,11.17-3.71-1.91-13.5-4.02-28.14-5.4-36.81-2.15-13.43.99-25.89,8.85-35.1,7.53-8.83,18.67-13.9,30.56-13.9,17.21,0,31.55,10.71,35.67,26.64,1.02,3.95,2.71,11.9,4.65,21.43,4.16-8.49,8.39-15.78,12.32-20.27,8.55-9.77,19.86-15.15,31.85-15.15,13.97,0,27.32,7.49,34.84,19.55,7.74,12.42,8.32,27.41,1.6,41.13-4.67,9.53-21.11,46.23-29.34,64.67,9.82,14.46,14.03,32.26,11.39,49.76-8.99,59.4-42.61,93.47-92.25,93.47h-.01Z"/>
      <path class="cls-33" d="m834.39,661.76h-.02c11.2,10.99,17.3,27.06,14.75,43.95-4.71,31.12-22.35,85.92-88.4,76.16-89.21-13.18-60.04-87.44-58.6-90.95-6.09-8.79-8.92-19.7-8.92-19.7,0,0-5.14-17.55,8.69-24.35,6.59-3.23,11.99-2.34,15.85-.51-.14-6.16,1.5-14.64,10.4-19.02,7.48-3.68,13.55-2.42,17.75-.25,3.55,1.85,6.38,4.85,8.23,8.39,0,0-6.69-49.06-9.84-68.71-4.84-30.24,32.64-35.03,37.93-14.59,3.56,13.77,16.78,84.26,16.78,84.26,0,0,20.44-61.11,32.89-75.35,18.64-21.31,48.77.49,36.92,24.66-6.51,13.29-34.41,76.01-34.41,76.01Z"/>
      <path class="cls-27" d="m863.91,552.38c-9.56-6.36-24.22-7.05-35.42,5.75-8.88,10.16-21.15,41.6-28.2,61.01-4.15-21.77-11.22-58.38-13.73-68.08-2.92-11.29-14.55-17.83-27.06-15.22-11.91,2.49-22.62,13.24-19.67,31.65,2.1,13.1,5.82,39.61,8.03,55.57-4.76-2.44-12.36-4.35-21.71.25-6.88,3.39-11.19,9.37-12.5,17.14-3.82-.58-8.49-.2-13.75,2.38-7.15,3.52-11.31,9.87-12.03,18.38-.48,5.66.78,10.47.98,11.18.25.94,2.63,9.67,7.63,18.03-.06.12-.14.23-.19.35-.55,1.35-13.39,33.4,2.27,60.9,10.54,18.51,31.23,30.17,61.49,34.64,5.45.8,10.68,1.21,15.71,1.21,23.2,0,41.88-8.57,55.65-25.58,13.97-17.25,19.75-39.74,22.15-55.57,2.4-15.85-2.21-31.96-12.64-44.21-.39-.46-.8-.89-1.2-1.34,5.45-12.23,27.49-61.64,33.12-73.11,7.47-15.24.61-29.01-8.93-35.35Zm-133.78,79c4.85-2.39,9.45-2.48,13.68-.29,2.63,1.37,4.82,3.61,6.31,6.47l.68,1.29c1.81,3.43,4.37,8.33,6.48,13.7-.33.23-.66.46-.97.71-8.04,6.25-9.03,13.42-9.08,16.21-.01.73-.06,1.5-.15,2.43-.18,1.82-.24,5.67,1.44,10.17-3.39.48-6.56-.33-9.61-2.47-10.57-7.39-15.76-26.88-15.81-27.07,0-.04-.02-.09-.03-.12,0-.03-.75-2.66-.82-6.14-.16-7.22,2.5-12.22,7.89-14.88Zm-26.25,19.53c3.34-1.64,6.54-2.06,9.56-1.32.3,2.8.82,4.77.96,5.25.39,1.49,5.69,20.87,17.44,30.66-.22,5.41-2.69,8.79-7.84,10.8-3.67,1.43-6.99,1.34-10.17-.28-8.99-4.59-14.8-20.28-16.28-25.93,0-.03-.02-.09-.03-.12-.16-.57-3.86-14.03,6.36-19.06Zm140.79,54.13c-2.23,14.72-7.55,35.57-20.24,51.25-14.61,18.04-35.83,25.15-63.05,21.13-27.36-4.04-45.85-14.18-54.96-30.13-10.23-17.91-6.06-38.96-3.39-48.26,2,2,4.22,3.74,6.69,5,2.99,1.53,6.09,2.29,9.28,2.29,2.7,0,5.46-.55,8.26-1.64,7.1-2.77,11.5-7.71,13.01-14.47,2.08.65,4.21.98,6.38.98s4.5-.35,6.79-1.05c4.19,4.73,10.17,8.27,17.89,10.6-10.6,5.7-23.5,16.62-23.52,35.98,0,2.49,2.01,4.5,4.49,4.51h0c2.48,0,4.5-2.01,4.5-4.49.03-19.35,16.79-28.1,26.79-31.59,2.5-.88,4.08-3.33,3.83-5.97-.25-2.65-2.26-4.77-4.9-5.17-14.02-2.1-20.69-7.05-23.83-11.69-.06-.09-.11-.18-.18-.26-2.68-4.13-2.61-7.97-2.48-9.29.11-1.14.17-2.16.19-3.12.03-1.77,1.49-17.27,41.54-17.79.64,0,1.28-.01,1.91,0,13.22.12,25.75,6.02,34.4,16.17,8.74,10.26,12.6,23.76,10.6,37.02Zm20.09-121.27c-5.4,11.02-25.01,54.9-32.01,70.61-9.4-7.3-20.95-11.42-32.99-11.53-.69,0-1.39,0-2.1,0-13.33.17-24.16,1.98-32.41,5.36-2.19-5.38-4.69-10.15-6.48-13.55l-.3-.58c-.87-6.36-6.84-49.91-9.75-68.03-2.15-13.4,5.11-19.84,12.62-21.41,6.72-1.4,14.55,1.12,16.5,8.66,3.48,13.47,16.58,83.26,16.72,83.96.38,2.01,2.07,3.52,4.11,3.66,2.05.14,3.93-1.12,4.58-3.06,5.61-16.76,22.29-62.69,32.02-73.82,5.08-5.81,14.32-10.39,23.65-4.18,6.59,4.38,10.95,13.47,5.84,23.9Z"/>
    </g>
    <g id="Good_vibe" data-name="Good vibe">
      <g>
        <path class="cls-24" d="m2128.97,1509.46c0-46.11-30.1-85.19-71.73-98.67v-11.46c0-37.64-30.8-68.44-68.44-68.44h-357.33c-37.64,0-68.44,30.8-68.44,68.44v10.67c-42.95,12.68-74.29,52.41-74.29,99.47s31.87,87.46,75.37,99.79c5.71,31.98,33.81,56.45,67.36,56.45h357.33c33.84,0,62.13-24.89,67.51-57.26,42.11-13.19,72.66-52.52,72.66-98.98Z"/>
        <path class="cls-30" d="m1627.81,1639.7c-20.77,0-38.82-15.5-41.97-36.04l-2.39-15.56-14.9-5.09c-31.42-10.75-52.53-40.3-52.53-73.54s20.88-62.44,51.95-73.34l17.39-6.1v-30.7c0-23.4,19.04-42.44,42.45-42.44h357.33c23.4,0,42.44,19.04,42.44,42.44v29.93l19.24,5.18c33.81,9.1,57.43,39.96,57.43,75.03s-23.98,66.46-58.32,75.26l-16.02,4.11-3.07,16.25c-3.79,20.06-21.33,34.62-41.7,34.62h-357.33Z"/>
        <path class="cls-27" d="m1985.14,1644.2h-357.33c-22.98,0-42.93-17.14-46.42-39.86l-1.97-12.87-12.32-4.21c-33.24-11.37-55.58-42.63-55.58-77.8s22.09-66.05,54.96-77.58l14.38-5.05v-27.51c0-25.88,21.06-46.94,46.95-46.94h357.33c25.88,0,46.94,21.06,46.94,46.94v26.48l15.91,4.28c35.77,9.63,60.76,42.27,60.76,79.38s-25.37,70.31-61.7,79.62l-13.25,3.4-2.54,13.44c-4.19,22.18-23.59,38.28-46.12,38.28Zm-357.33-282.82c-20.93,0-37.95,17.02-37.95,37.94v33.89l-20.4,7.16c-29.27,10.27-48.94,38.03-48.94,69.09s19.89,59.16,49.49,69.28l17.48,5.98,2.8,18.26c2.82,18.37,18.95,32.23,37.52,32.23h357.33c18.21,0,33.89-13.02,37.28-30.95l3.6-19.06,18.79-4.82c32.35-8.29,54.94-37.45,54.94-70.91s-22.25-62.11-54.1-70.69l-22.57-6.08v-33.38c0-20.92-17.02-37.94-37.94-37.94h-357.33Z"/>
      </g>
      <g>
        <path class="cls-3" d="m1587.92,1505.23c40.97-16.48,34.02-28.5-.73-1.26,28.18-38.63,16.02-45.65-3.35-1.93,6.22-43.72-7.67-43.72-1.46,0-19.37-43.72-31.52-36.7-3.35,1.93-34.75-27.24-41.7-15.21-.73,1.26-47.55-5.09-47.55,8.95,0,3.86-40.97,16.48-34.02,28.5.73,1.26-28.18,38.63-16.02,45.65,3.35,1.93-6.22,43.72,7.67,43.72,1.46,0,19.37,43.72,31.52,36.7,3.35-1.93,34.75,27.24,41.7,15.21.73-1.26,47.55,5.09,47.55-8.95,0-3.86Z"/>
        <path class="cls-3" d="m2038.37,1505.23c40.97-16.48,34.02-28.5-.73-1.26,28.18-38.63,16.02-45.65-3.35-1.93,6.22-43.72-7.67-43.72-1.46,0-19.37-43.72-31.52-36.7-3.35,1.93-34.75-27.24-41.7-15.21-.73,1.26-47.55-5.09-47.55,8.95,0,3.86-40.97,16.48-34.02,28.5.73,1.26-28.18,38.63-16.02,45.65,3.35,1.93-6.21,43.72,7.67,43.72,1.46,0,19.37,43.72,31.52,36.7,3.35-1.93,34.75,27.24,41.7,15.21.73-1.26,47.55,5.09,47.55-8.95,0-3.86Z"/>
      </g>
      <g id="Text-7" data-name="Text">
        <text class="cls-19" transform="translate(1670.31 1474.05)"><tspan x="0" y="0">GOOD</tspan></text>
        <text class="cls-14" transform="translate(1682.05 1590.24)"><tspan x="0" y="0">VIBE</tspan></text>
      </g>
    </g>
    <g id="OMG">
      <g>
        <ellipse class="cls-33" cx="530.13" cy="1490.19" rx="288.86" ry="159.2" transform="translate(-251.99 115.42) rotate(-10.05)"/>
        <path class="cls-4" d="m553.38,1621.34c-71.72,12.72-141.45,9.42-196.34-9.27-24.9-8.48-45.86-20.1-60.62-33.6-13.94-12.74-22.38-27.01-25.11-42.41-2.73-15.39.3-31.7,9.01-48.45,9.22-17.75,24.91-35.86,45.38-52.39,45.11-36.42,109.46-63.48,181.18-76.2,71.72-12.72,141.45-9.42,196.34,9.27,24.9,8.48,45.86,20.1,60.62,33.6,13.94,12.74,22.38,27.01,25.11,42.41,2.73,15.39-.3,31.7-9.01,48.45-9.22,17.75-24.91,35.86-45.38,52.39-45.11,36.42-109.46,63.48-181.18,76.2Z"/>
      </g>
      <g>
        <path class="cls-7" d="m690.2,1339.34l-20.47,7.85c-2.39.92-3.43,3.72-2.22,5.98l10.37,19.34c1.91,3.57-1.78,7.54-5.48,5.89l-20.05-8.93c-2.34-1.04-5.06.21-5.8,2.66l-6.33,20.99c-1.17,3.88-6.59,4.08-8.04.29l-7.85-20.47c-.92-2.39-3.72-3.43-5.98-2.22l-19.34,10.37c-3.57,1.91-7.54-1.78-5.89-5.48l8.93-20.05c1.04-2.34-.21-5.06-2.66-5.8l-20.99-6.33c-3.88-1.17-4.08-6.59-.29-8.04l20.47-7.85c2.39-.92,3.43-3.72,2.22-5.98l-10.37-19.34c-1.91-3.57,1.78-7.54,5.48-5.89l20.05,8.93c2.34,1.04,5.06-.21,5.8-2.66l6.33-20.99c1.17-3.88,6.59-4.08,8.04-.29l7.85,20.47c.92,2.39,3.72,3.43,5.98,2.22l19.34-10.37c3.57-1.91,7.54,1.78,5.89,5.48l-8.93,20.05c-1.04,2.34.21,5.06,2.66,5.8l20.99,6.33c3.88,1.17,4.08,6.59.29,8.04Z"/>
        <path class="cls-24" d="m413.58,1639.69l-21.57,6.08c-2.52.71-3.84,3.47-2.82,5.88l8.75,20.66c1.62,3.81-2.51,7.51-6.13,5.49l-19.58-10.96c-2.28-1.28-5.17-.26-6.15,2.16l-8.41,20.78c-1.55,3.84-7.09,3.54-8.21-.45l-6.08-21.57c-.71-2.52-3.47-3.84-5.88-2.82l-20.66,8.75c-3.81,1.62-7.51-2.51-5.49-6.13l10.96-19.58c1.28-2.28.26-5.17-2.16-6.15l-20.78-8.41c-3.84-1.55-3.54-7.09.45-8.21l21.57-6.08c2.52-.71,3.84-3.47,2.82-5.88l-8.75-20.66c-1.62-3.81,2.51-7.51,6.13-5.49l19.58,10.96c2.28,1.28,5.17.26,6.15-2.16l8.41-20.78c1.55-3.84,7.09-3.54,8.21.45l6.08,21.57c.71,2.52,3.47,3.84,5.88,2.82l20.66-8.75c3.81-1.62,7.51,2.51,5.49,6.13l-10.96,19.58c-1.28,2.28-.26,5.17,2.16,6.15l20.78,8.41c3.84,1.55,3.54,7.09-.45,8.21Z"/>
      </g>
      <g id="Text-8" data-name="Text">
        <text class="cls-8" transform="translate(350.63 1650.41) rotate(-19.96)"><tspan x="0" y="0">!!</tspan></text>
        <text class="cls-13" transform="translate(615.72 1351.01) rotate(10.55)"><tspan x="0" y="0">!?</tspan></text>
        <g id="Text-9" data-name="Text">
          <g>
            <path class="cls-30" d="m317.66,1522.07c-5.18-33.64,18.6-66.35,49.53-78.04,45.25-17.1,66.96,30.38,71.06,65.65,3.83,32.91-4.5,91.89-52.49,85.33-35.03-4.79-62.96-39.51-68.1-72.94Zm62.64,27.97c16.18.19,18.03-21.84,16.58-34.09-1.5-12.6-8.41-32.57-24.33-28.95-14.57,3.31-18.13,19.87-16.4,33.28,1.74,13.47,9.26,29.58,24.15,29.76Z"/>
            <path class="cls-30" d="m520.64,1562.85c-8.64-29.76-17.3-59.52-26.02-89.26-1.56-4.84-2.2-6.06-4.02-5.66-2.15.47-2.87,1.73-2.46,6.78,1.58,19.6,3.72,39.16,6.55,58.67.37,1.84.99,2.81,2.15,2.61,1.26-.22,1.89-.33,3.15-.56,10.25.34,12.23,17.08,13,24.16,1.01,9.26,1.38,29.71-10.8,32.04-4.09.78-8.39.37-13.7,1.01-6.8.82-11.81,2.01-17.66,2.6-15.13,1.55-22.15-16.14-22.53-28.06-.31-9.65-.16-22.99,10.3-25.47,1.31-.31,2.17-.03,4.15-.31,1.48-.21,2.84-1.23,2.45-5.09-1.88-18.27-3.84-36.9-6.25-55.29-.44-3.86-1.41-4.96-2.88-4.64-1.15.25-2.44,1.11-3.88,1.39-12.12,2.34-13.84-15.51-15.36-24.01-2.82-15.83,2.74-33.11,19.47-37.87,5.03-1.43,10.2-1.11,14.81-2.4,6.41-1.79,12.17-5.09,20.38-7.36,15.27-4.22,20.38,11.32,23.13,23.31,5.6,21.29,11.18,42.59,16.76,63.88.83,2.85,1.58,3.53,3.24,3.18,1.49-.31,2.07-1.25,2.2-4.59.58-22.22,1.17-44.44,1.76-66.66.14-11.74,1.09-29.62,15.39-32.13,4.43-.78,11.13-.13,17.27-.96,6.64-.9,13.11-3.28,19.56-3.88,16.28-1.53,22.35,15,23.92,28.29,1.04,8.77,2.56,25.81-9.09,28.9-.66.1-2.04-.22-2.53-.15-1.48.22-2.22,1.42-1.92,5.3,1.34,17.42,3.44,34.93,5.92,52.35.72,4.84,1.78,8.28,4.24,7.7,2.13-.5,3.33-2.3,5.79-2.4,8.41-.34,12.14,14.36,13.06,22.97,1.39,13.01-.9,29.25-15.19,33.83-5.81,1.86-10.56,2.44-15.81,3.97-5.42,1.58-9.29,3.51-13.55,4.66-15.19,4.08-20.62-14.82-21.39-25.92-.65-9.31-2.24-21.38,7.52-26.87.53-.12.79-.18,1.32-.3,1.32-.3,1.81-1,1.66-3.37-1.21-19.19-3.81-39.02-6.53-58.47-.7-4.76-1.74-6.48-3.89-6.08-1.49.28-2,1.74-2.27,6.97-1.66,31.84-3.32,63.68-4.96,95.53-.07,10.43-1.05,27.7-13.74,30.58-14.29,3.25-19.72-11.78-22.72-22.96Z"/>
            <path class="cls-30" d="m626.23,1473.43c-3.23-28.71,2.2-90.72,46.16-86.39,8.93.88,15.32,3.3,21.08,7.43,5.76,4.13,6.79,6.08,8.56,6.33.8.11,1.4-.2,1.51-1.79.24-5.59,3.09-8.11,10.64-6.42,9.95,2.23,13.81,8.43,14.69,15.04.68,5.14.84,9.81,1.5,14.72.46,3.46,1.56,6.97,2.21,11.81,1.09,8.08-5.21,13.45-15.19,13.69-10.14.24-15.01-2.48-16.89-12.39-.57-3.3-1.96-5.4-4.65-6.48-2.19-.87-6.46-1.55-9.04-1.55-19.97-.47-22.49,24.98-20.85,39.24,1.72,14.96,11.79,34.69,30.23,30.03,8.73-2.21,12.65-6.85,12.3-9.64-.2-1.59-.81-2.5-2.39-2.2-.95.18-1.4.48-2.82.76-4.44.87-8.64-4.06-9.88-13.99-1.39-11.2,2.21-17.61,10.5-18.17,5.1-.35,10.6.12,16.12-.13,7.11-.32,10.62-1.13,15.32-1.19,5.79-.08,11.17,3.98,12.43,12.82,1.04,7.36-.5,11.78-7.33,13.94-1.68.45-2.18,1.42-1.92,3.32.71,5.17,2.89,13.97,3.72,19.85,1.69,12.09-2.95,17.9-12.37,21.63-7.57,3-11.17,1.88-14.06-3.95-.46-1.05-1.17-1.41-1.95-1.15-.78.27-1.05.76-2.12,2.56-5.02,8.98-13.79,15.04-23.21,18.51-41.38,15.25-58.91-36.48-62.26-66.25Z"/>
          </g>
        </g>
      </g>
    </g>
    <g id="Heart">
      <g>
        <path class="cls-7" d="m1374.28,530.09c22.15-4.92,28.81-11.58,33.73-33.73.59-2.66,4.39-2.66,4.98,0,4.92,22.15,11.58,28.81,33.73,33.73,2.66.59,2.66,4.39,0,4.98-22.15,4.92-28.81,11.58-33.73,33.73-.59,2.66-4.39,2.66-4.98,0-4.92-22.15-11.58-28.81-33.73-33.73-2.66-.59-2.66-4.39,0-4.98Z"/>
        <path class="cls-7" d="m1647.27,763.35c21.76-4.89,28.42-11.55,33.31-33.31.62-2.74,4.52-2.74,5.14,0,4.89,21.76,11.55,28.42,33.31,33.31,2.74.62,2.74,4.52,0,5.14-21.76,4.89-28.42,11.55-33.31,33.31-.62,2.74-4.52,2.74-5.14,0-4.89-21.76-11.55-28.42-33.31-33.31-2.74-.62-2.74-4.52,0-5.14Z"/>
      </g>
      <g>
        <path class="cls-30" d="m1623.25,532.35c-21.87.34-41.53,9.74-55.41,24.62-2.95,3.16-8.01,3.16-10.95,0-13.88-14.87-33.54-24.27-55.4-24.62-44.08-.69-79.35,35.96-78.68,80.04,1.56,101.59,94.07,165.34,127.68,185.18,7.43,4.39,16.64,4.38,24.07-.01,33.55-19.85,125.8-83.6,127.36-185.17.67-44.08-34.59-80.74-78.67-80.05Z"/>
        <path class="cls-7" d="m1562.52,782.08c-.87,0-1.73-.24-2.48-.68-15.52-9.16-45.42-28.9-71.34-58.21-30.66-34.66-46.51-72.04-47.11-111.09-.25-16.46,5.92-31.94,17.39-43.59,11.05-11.22,25.71-17.4,41.28-17.4.31,0,.62,0,.93,0,16.07.25,30.98,6.88,41.96,18.65,4.94,5.3,11.94,8.34,19.21,8.34s14.26-3.04,19.21-8.34c10.99-11.78,25.89-18.4,41.97-18.65.31,0,.62,0,.93,0,15.57,0,30.23,6.18,41.28,17.4,11.47,11.65,17.65,27.13,17.4,43.59-.6,39.05-16.4,76.43-46.98,111.09-25.86,29.31-55.68,49.05-71.16,58.2-.75.45-1.61.68-2.48.68Z"/>
        <path class="cls-24" d="m1568.14,757.24c-3.41,2.27-7.85,2.27-11.26,0-15.22-10.11-35.76-25.76-54.11-46.5-27.61-31.21-41.87-64.5-42.4-98.94-.18-11.39,4.08-22.09,11.99-30.12,7.49-7.61,17.4-11.8,27.9-11.8.21,0,.42,0,.63,0,10.93.17,21.07,4.68,28.54,12.68,8.48,9.09,20.49,14.31,32.94,14.31s24.46-5.21,32.94-14.3c7.47-8.01,17.61-12.51,28.53-12.68.22,0,.43,0,.63,0,10.5,0,20.4,4.19,27.9,11.8,7.91,8.03,12.17,18.73,12,30.13-.53,34.45-14.75,67.74-42.29,98.95-18.29,20.73-38.77,36.37-53.94,46.47Z"/>
      </g>
      <g>
        <path class="cls-27" d="m1544.69,632.54c-3.3,0-5.98,4.46-5.98,9.97s2.68,9.97,5.98,9.97,5.98-4.46,5.98-9.97-2.68-9.97-5.98-9.97Z"/>
        <ellipse class="cls-27" cx="1580.04" cy="642.51" rx="5.98" ry="9.97"/>
        <path class="cls-27" d="m1562.37,684.62c-20.26,0-37.93-12.98-43.97-32.29-.74-2.37.58-4.9,2.95-5.64,2.37-.74,4.9.58,5.64,2.95,4.86,15.54,19.08,25.98,35.38,25.98s30.52-10.44,35.38-25.98c.74-2.37,3.26-3.69,5.64-2.95,2.37.74,3.69,3.27,2.95,5.64-6.04,19.31-23.71,32.29-43.97,32.29Z"/>
      </g>
    </g>
    <g id="Hello_human" data-name="Hello, human">
      <circle class="cls-34" cx="2442.64" cy="1064.27" r="198.71"/>
      <g id="Alian">
        <g>
          <path class="cls-24" d="m2362.19,1046.95c.56-23.35,12.53-58.27,37.5-77.26,37.14-28.23,84.83-9.86,84.83-9.86,0,0,56.32,18.03,56.32,86.44s-108.21,137.1-143.13,113.39c-19.7-13.38-36.99-52.31-35.53-112.71Z"/>
          <path class="cls-27" d="m2416.46,1169.03c-8.44,0-15.69-1.87-21.26-5.66-19.17-13.02-39.09-50.48-37.5-116.54.6-24.96,13.15-60.87,39.28-80.73,38.15-29,85.77-11.77,89.06-10.52,1.6.53,15.63,5.45,29.72,18.51,13.5,12.52,29.6,35.21,29.6,72.17,0,20.78-8.86,42.7-25.61,63.4-14.5,17.91-34.11,33.92-55.22,45.11-17.79,9.42-34.48,14.26-48.06,14.26Zm32.86-210.51c-14.59,0-31.77,3.25-46.9,14.75-22.71,17.26-35.16,50.18-35.73,73.79h0c-1.51,62.51,17.14,97.72,33.56,108.88,11.58,7.87,34.59,4.37,60.06-9.11,36.62-19.4,76.04-59.14,76.04-100.55,0-26.91-8.89-48.88-26.44-65.3-13.19-12.35-26.63-16.8-26.77-16.85l-.24-.08c-.25-.1-14.77-5.51-33.6-5.51Z"/>
        </g>
        <ellipse class="cls-27" cx="2396.35" cy="1086.05" rx="15.8" ry="23.36" transform="translate(-17.28 38.97) rotate(-.93)"/>
        <ellipse class="cls-27" cx="2461.14" cy="1101.38" rx="23.36" ry="15.8" transform="translate(-76.47 2012.85) rotate(-43.87)"/>
      </g>
      <g id="Glass">
        <polygon class="cls-30" points="2534.76 1086.82 2533.05 1080.04 2531.21 1072.76 2522.33 1037.54 2534.61 1026.48 2536.81 1024.5 2537.75 1067.4 2538.02 1079.91 2534.76 1086.82"/>
        <path class="cls-30" d="m2537.53,1014.4c-1.39-5.22-5.31-9.28-10.47-10.86l-53.4-16.35c-1.1-.34-2.24-.55-3.38-.64-2.38-.18-4.72.18-6.87,1.03h0c-4.01,1.42-6.04.28-7.02-.81-.25-.46-.52-.91-.81-1.34,0,0,0-.01,0-.01h0c-1.95-2.88-4.85-5.05-8.3-6.11l-53.4-16.35c-1.1-.34-2.24-.55-3.38-.64-4.71-.36-9.27,1.42-12.52,4.87-3.22,3.43-4.69,8.06-4.04,12.72,2.53,18.1,15.07,31.21,34.42,35.95,3.54.87,7.04,1.44,10.38,1.69,11.31.86,21.64-1.9,29.78-7.85h0c4.96-2.21,7.02,2.25,7.02,2.25h0c4.65,14.03,16.17,24.1,32.61,28.13,3.54.87,7.04,1.44,10.38,1.69,14.07,1.07,26.62-3.45,35.33-12.75,3.69-3.94,5.07-9.41,3.68-14.63Z"/>
        <path class="cls-33" d="m2390.74,973.18l53.4,16.35c3.45,1.06,4.59,5.35,2.13,7.98-5.33,5.69-16.18,12.7-35.39,7.99-20.07-4.92-25.2-18.53-26.39-27.05-.49-3.5,2.87-6.31,6.25-5.27Z"/>
        <path class="cls-33" d="m2470.53,997.4l53.4,16.35c3.45,1.06,4.59,5.35,2.13,7.98-5.33,5.69-16.18,12.7-35.39,7.99-20.07-4.92-25.2-18.53-26.39-27.05-.49-3.5,2.87-6.31,6.25-5.27Z"/>
      </g>
      <g id="Text-10" data-name="Text">
        <text class="cls-6" transform="translate(2341.45 956.8) rotate(-39.91)"><tspan x="0" y="0">H</tspan></text>
        <text class="cls-6" transform="translate(2359.42 941.96) rotate(-32.1)"><tspan x="0" y="0">E</tspan></text>
        <text class="cls-6" transform="translate(2374.24 932.64) rotate(-25.5)"><tspan x="0" y="0">L</tspan></text>
        <text class="cls-6" transform="translate(2389.36 925.38) rotate(-19.01)"><tspan x="0" y="0">L</tspan></text>
        <text class="cls-6" transform="translate(2403.67 920.02) rotate(-11.54)"><tspan x="0" y="0">O</tspan></text>
        <text class="cls-6" transform="translate(2426.89 915.64) rotate(-5.87)"><tspan x="0" y="0">,</tspan></text>
        <text class="cls-6" transform="translate(2434.18 914.88) rotate(-3.03)"><tspan x="0" y="0"> </tspan></text>
        <text class="cls-6" transform="translate(2441.39 914.05) rotate(2.79)"><tspan x="0" y="0">H</tspan></text>
        <text class="cls-6" transform="translate(2464.59 915.12) rotate(11.67)"><tspan x="0" y="0">U</tspan></text>
        <text class="cls-6" transform="translate(2487.15 919.43) rotate(21.66)"><tspan x="0" y="0">M</tspan></text>
        <text class="cls-6" transform="translate(2513.44 930.07) rotate(31.24)"><tspan x="0" y="0">A</tspan></text>
        <text class="cls-6" transform="translate(2532.12 941.25) rotate(39.91)"><tspan x="0" y="0">N</tspan></text>
        <text class="cls-6" transform="translate(2327.06 1188.63) rotate(39.76)"><tspan x="0" y="0">H</tspan></text>
        <text class="cls-6" transform="translate(2347.45 1205.14) rotate(32.02)"><tspan x="0" y="0">E</tspan></text>
        <text class="cls-6" transform="translate(2364.51 1215.66) rotate(25.44)"><tspan x="0" y="0">L</tspan></text>
        <text class="cls-6" transform="translate(2381.94 1223.84) rotate(18.98)"><tspan x="0" y="0">L</tspan></text>
        <text class="cls-6" transform="translate(2398.99 1229.94) rotate(11.57)"><tspan x="0" y="0">O</tspan></text>
        <text class="cls-6" transform="translate(2424.31 1234.66) rotate(5.93)"><tspan x="0" y="0">,</tspan></text>
        <text class="cls-6" transform="translate(2432.71 1235.52) rotate(3.11)"><tspan x="0" y="0"> </tspan></text>
        <text class="cls-6" transform="translate(2442.11 1236.35) rotate(-2.65)"><tspan x="0" y="0">H</tspan></text>
        <text class="cls-6" transform="translate(2468.66 1234.93) rotate(-11.46)"><tspan x="0" y="0">U</tspan></text>
        <text class="cls-6" transform="translate(2494.89 1229.62) rotate(-21.41)"><tspan x="0" y="0">M</tspan></text>
        <text class="cls-6" transform="translate(2524.53 1217.48) rotate(-30.94)"><tspan x="0" y="0">A</tspan></text>
        <text class="cls-6" transform="translate(2545.95 1204.5) rotate(-39.54)"><tspan x="0" y="0">N</tspan></text>
      </g>
    </g>
    <g id="Disc">
      <g>
        <path class="cls-7" d="m2625,552.67l-35.87,247.35c-.85,5.87-6.3,9.94-12.19,9.09l-202.72-29.4c-2.66-.39-5.08-1.75-6.78-3.82l-30.6-37.32c-1.92-2.34-2.76-5.37-2.33-8.35l31.2-215.15c.85-5.88,6.31-9.95,12.18-9.1l238,34.52c5.88.85,9.95,6.31,9.1,12.19Z"/>
        <path class="cls-27" d="m2576.19,534.73l-15.46,106.63c-.89,6.12-6.57,10.36-12.7,9.47l-149.64-21.7c-6.12-.89-10.36-6.57-9.47-12.69l15.46-106.63,171.82,24.92Z"/>
        <path class="cls-33" d="m2534.76,689.66l-126.63-18.36c-6.12-.89-11.8,3.36-12.69,9.47l-14.48,99.86,148.81,21.58,14.48-99.86c.89-6.12-3.36-11.8-9.49-12.69Z"/>
        <rect class="cls-27" x="2384.2" y="713.41" width="65.56" height="29.9" rx="5.38" ry="5.38" transform="translate(1349.28 3015.78) rotate(-81.75)"/>
      </g>
      <g>
        <path class="cls-33" d="m2556.21,596.42c-.21,0-.43-.02-.65-.05l-146.64-21.26c-2.46-.36-4.17-2.64-3.81-5.1.36-2.46,2.64-4.16,5.1-3.81l146.64,21.26c2.46.36,4.17,2.64,3.81,5.1-.32,2.24-2.25,3.85-4.45,3.85Z"/>
        <path class="cls-33" d="m2551.61,628.08c-.21,0-.43-.02-.65-.05l-146.63-21.26c-2.46-.36-4.17-2.64-3.81-5.1.36-2.46,2.64-4.16,5.1-3.81l146.63,21.26c2.46.36,4.17,2.64,3.81,5.1-.32,2.24-2.25,3.85-4.45,3.85Z"/>
        <path class="cls-33" d="m2560.8,564.76c-.21,0-.43-.02-.65-.05l-146.64-21.27c-2.46-.36-4.17-2.64-3.81-5.1.36-2.46,2.64-4.17,5.1-3.81l146.64,21.27c2.46.36,4.17,2.64,3.81,5.1-.32,2.24-2.25,3.85-4.45,3.85Z"/>
        <path class="cls-33" d="m2576.2,791.53c-.21,0-.43-.02-.65-.05-2.46-.36-4.17-2.64-3.81-5.1l33.38-230.21c.36-2.46,2.65-4.16,5.1-3.81,2.46.36,4.17,2.64,3.81,5.1l-33.38,230.21c-.32,2.24-2.25,3.85-4.45,3.85Z"/>
      </g>
      <path class="cls-30" d="m2522.51,566.21c-4.85,1.08-8.79,4.08-11.19,8.02-.51.84-1.64,1.07-2.44.5-3.77-2.67-8.57-3.86-13.45-2.93-9.83,1.87-15.99,11.64-13.82,21.42,5.02,22.52,28.52,32.44,36.91,35.31,1.85.63,3.9.21,5.35-1.11,6.55-5.96,24.13-24.37,19.81-47.03-1.88-9.83-11.4-16.36-21.17-14.18Z"/>
    </g>
    <g id="High_five" data-name="High five">
      <g>
        <path class="cls-7" d="m2248.7,321.74c17-3.78,22.1-8.88,25.88-25.88.45-2.04,3.37-2.04,3.82,0,3.78,17,8.88,22.1,25.88,25.88,2.04.45,2.04,3.37,0,3.82-17,3.78-22.1,8.88-25.88,25.88-.45,2.04-3.37,2.04-3.82,0-3.78-17-8.88-22.1-25.88-25.88-2.04-.45-2.04-3.37,0-3.82Z"/>
        <path class="cls-7" d="m2590.01,190.68c17-3.78,22.1-8.88,25.88-25.88.45-2.04,3.37-2.04,3.82,0,3.78,17,8.88,22.1,25.88,25.88,2.04.45,2.04,3.37,0,3.82-17,3.78-22.1,8.88-25.88,25.88-.45,2.04-3.37,2.04-3.82,0-3.78-17-8.88-22.1-25.88-25.88-2.04-.45-2.04-3.37,0-3.82Z"/>
        <path class="cls-30" d="m2603.68,230.96l-44.36-19.67c-4.47-1.98-6.23-7.4-3.78-11.63l24.33-41.99c3.57-6.17-1.86-13.64-8.83-12.15l-47.46,10.19c-4.78,1.03-9.4-2.33-9.9-7.19l-4.96-48.26c-.73-7.09-9.53-9.95-14.29-4.64l-32.39,36.14c-3.26,3.64-8.97,3.64-12.23,0l-32.4-36.14c-4.76-5.31-13.56-2.45-14.29,4.64l-4.96,48.26c-.5,4.86-5.11,8.22-9.9,7.19l-47.46-10.19c-6.97-1.5-12.4,5.98-8.83,12.15l24.33,41.99c2.45,4.23.69,9.65-3.78,11.63l-44.36,19.67c-6.51,2.89-6.51,12.13,0,15.02l44.36,19.67c4.47,1.98,6.23,7.4,3.78,11.63l-24.33,41.99c-3.57,6.17,1.86,13.64,8.83,12.15l47.46-10.19c4.78-1.03,9.39,2.33,9.9,7.19l4.96,48.26c.73,7.09,9.53,9.95,14.29,4.64l32.39-36.14c3.26-3.64,8.97-3.64,12.23,0l32.4,36.14c4.76,5.31,13.56,2.45,14.29-4.64l4.96-48.26c.5-4.86,5.11-8.22,9.9-7.19l47.46,10.19c6.97,1.5,12.4-5.98,8.83-12.15l-24.33-41.99c-2.45-4.23-.69-9.65,3.78-11.63l44.36-19.67c6.51-2.89,6.51-12.13,0-15.02Z"/>
      </g>
      <g>
        <path class="cls-24" d="m2486.26,449.52c-11.1,0-20.73-7.15-23.97-17.79-3.07-10.08-6.21-22.74-8.31-31.58-.59-2.52-1.86-4.81-3.66-6.63-11.79-11.88-19.88-28.51-24.03-49.4-3.03-15.26-3.31-29.59-3-38.94-.02-1.76-.93-8.52-1.32-11.41-.27-2.04-.49-3.66-.6-4.69-3.54-33.15-1.48-50.88,7.12-61.19,4.17-5,9.92-8.04,16.69-8.84,1.73-16.22,11.46-26.15,26.58-26.82.38-.02.77-.03,1.18-.03,1.7,0,3.37.16,4.98.46,5.52-7.46,13.63-11.55,23.42-11.55,10.3,0,18.58,4.68,23.32,13.17.71,1.27,1.3,2.55,1.78,3.82.86-.08,1.74-.12,2.61-.12,12.76,0,22.66,8.22,25.85,21.45,2.36,9.8,1.75,26.06,1.67,27.88-.21,4.83-.29,9.66-.25,14.47.59-.53,1.03-.86,1.34-1.1,4.26-3.26,10.81-5.29,17.1-5.29,12.6,0,22.29,7.78,25.29,20.3,1.43,5.94,1.61,17-13.27,44.23-5.41,9.91-11.51,19.55-15.74,25.67,6.17,17.16,13.02,29.99,17.88,37.99,3.33,5.47,4.07,12.1,2.02,18.17-2.04,6.07-6.63,10.9-12.59,13.24l-82.91,32.77c-2.95,1.17-6.05,1.76-9.2,1.76h0Z"/>
        <path class="cls-24" d="m2558.25,343.66c4.82-5.79,34.22-50.43,30.65-65.29-3.64-15.17-19.52-12.2-24.26-8.56-4.52,3.46-13.86,18.26-16.87,23.13l-1.13-2.14c-1.56-13.56-2.22-28.24-1.53-43.96,0,0,.69-16.19-1.36-24.7-4.19-17.4-23.32-14.61-28.75-5.1l2.66-5.3c-.47-3.68-.89-19.13-16.31-19.13-8.96,0-15.25,5.07-18.24,15.42-3.69-4.06-8.4-4.43-10.84-4.32-4.71.21-15.36,1.53-15.87,19.55-.15,5.38-.25,9.15-.38,12.94-.11-2.95-4.72-6.11-8.67-5.82-13.68,1.01-19.09,15.15-14.56,57.51.32,3.01,2.09,14.61,1.98,17.64-.47,14.32,0,56.04,23.71,79.94,3.29,3.33,5.6,7.51,6.67,12.06,1.9,8.01,5.04,20.76,8.12,30.89,2.31,7.6,10.6,11.62,17.98,8.7l82.92-32.77c5.89-2.32,8.25-9.37,4.97-14.78-5.66-9.31-13.9-24.86-20.88-45.88Z"/>
        <path class="cls-27" d="m2563.27,344.45c7.27-10.11,33.97-50.62,30.01-67.13-2.1-8.75-7.49-12.34-11.64-13.81-6.92-2.46-15.47-.54-19.74,2.72-3.14,2.4-7.77,8.72-11.72,14.59-.88-11.13-1.08-22.45-.58-33.8.03-.69.7-16.93-1.48-25.96-2.25-9.31-8.71-15.3-17.28-16.01-3.24-.27-6.47.23-9.4,1.34-2.29-12.14-9.03-18.31-20.1-18.31-6.14,0-15.04,2.11-20.32,12.89-2.69-1.29-5.72-1.92-8.96-1.78-12.59.55-19.75,9.05-20.17,23.92l-.02.88c-.02.88-.05,1.7-.07,2.49-1.59-.5-3.23-.73-4.78-.62-5.49.41-9.92,2.59-13.17,6.48-7.16,8.58-8.81,25.32-5.54,55.98.1.9.32,2.55.58,4.5.5,3.75,1.44,10.73,1.38,12.51-.3,8.98-.04,22.77,2.87,37.4,3.88,19.53,11.33,34.96,22.14,45.85,2.71,2.73,4.6,6.16,5.49,9.93,2.07,8.74,5.18,21.25,8.2,31.16,1.47,4.83,4.92,8.86,9.47,11.05,2.46,1.19,5.15,1.78,7.84,1.78,2.25,0,4.51-.42,6.63-1.26l82.92-32.77c4.04-1.59,7.15-4.87,8.53-8.98,1.38-4.12.88-8.61-1.37-12.32-5.36-8.82-13.04-23.3-19.71-42.76Zm12.55,52.21c-.54,1.61-1.72,2.85-3.31,3.48l-82.92,32.77c-2.38.94-4.95.85-7.26-.26-2.32-1.12-4.01-3.09-4.76-5.56-2.95-9.69-6-21.99-8.05-30.6-1.26-5.37-3.98-10.28-7.86-14.2-21.78-21.96-22.93-60.9-22.41-76.61.08-2.34-.58-7.51-1.45-14.02-.25-1.85-.46-3.4-.55-4.26-2.87-26.89-1.73-43,3.5-49.27,1.67-2.01,3.87-3.05,6.92-3.27,1.48-.11,3.33,1.03,3.82,1.74-.31,10.35.18,27.22,1.5,51.55.13,2.4,2.12,4.26,4.49,4.26.08,0,.17,0,.25,0,2.48-.13,4.38-2.26,4.25-4.74-1.33-24.49-1.81-41.28-1.48-51.32.12-3.59.21-7.16.35-12.08l.02-.88c.13-4.77.41-14.69,11.56-15.18,1.59-.07,3.7.17,5.63,1.42-.93,4.2-1.47,9.19-1.47,15.12.13,19.93,0,59.48,0,59.87,0,2.49,2,4.51,4.48,4.52h.02c2.48,0,4.49-2,4.5-4.48,0-.4.13-39.99,0-59.94,0-18.32,5.29-27.61,15.74-27.61,5.34,0,10.45,1.71,11.73,14.16.03.34.06.63.1.88-1.14,1.33-2.09,2.79-2.76,4.39-4.61,10.86-6.92,33.49-6.68,65.44,0,.6,0,1.06,0,1.36,0,2.49,2.01,4.5,4.5,4.5s4.5-2.01,4.5-4.5c0-.31,0-.8,0-1.43-.31-40.87,3.6-56.3,5.96-61.86,1.57-3.7,6.68-6.4,11.41-6.01,3.29.27,7.57,2.08,9.27,9.15,1.88,7.8,1.24,23.3,1.24,23.46-.68,15.6-.09,31.16,1.74,46.27,0,.06.03.11.04.17-1.01,1.37-3.77,4.46-8.9,5.5-1.1.23-2.86.28-4.9.35-8.58.27-22.95.73-37.54,14.82-1.79,1.73-1.84,4.57-.11,6.36,1.73,1.79,4.57,1.84,6.36.11,12.1-11.68,23.36-12.03,31.58-12.3,2.45-.08,4.56-.15,6.42-.52,10.15-2.07,14.71-9.38,15.42-10.62,4.97-8.23,13.41-20.89,16.67-23.39,1.72-1.32,6.96-2.91,11.26-1.39,3.02,1.07,4.95,3.5,5.89,7.43,2.87,11.96-23.79,54.24-29.74,61.36-.02.03-.03.06-.06.08-.09.11-.16.23-.23.34-.09.13-.18.27-.26.41-.05.09-.08.19-.12.29-.07.17-.15.35-.2.53-.03.09-.03.18-.05.27-.04.19-.09.38-.1.58,0,.1,0,.2,0,.3,0,.19,0,.38.01.57.01.1.04.19.05.29.03.2.07.39.13.59,0,.02,0,.04.01.07,7.1,21.38,15.51,37.25,21.31,46.8.88,1.44,1.07,3.18.54,4.78Z"/>
      </g>
      <g>
        <path class="cls-27" d="m2410.74,447.38c-3.53,0-6.96-.73-10.2-2.18l-81.42-36.34c-5.84-2.6-10.22-7.63-11.99-13.78-1.78-6.15-.75-12.74,2.82-18.06,5.5-8.22,13.45-21.74,20.71-40.16-1.29-8.99-7.09-18.35-12.71-27.41-7.56-12.19-14.7-23.7-11.22-35.85,3.5-12.24,13.32-19.84,25.63-19.84,5.66,0,11.24,1.61,15.38,4.36.31-5.25.46-10.53.46-15.82v-.13c.17-15.34,6.31-41.49,28.26-42.24.41-.01.8-.02,1.19-.02,1.51,0,2.94.1,4.28.28.58-1.24,1.24-2.47,2.01-3.66,3.55-5.5,10.49-12.06,23.38-12.06.69,0,1.41.02,2.12.06,10.66.58,16.88,5.28,20.32,9.44,2.03-.4,4.18-.61,6.45-.61,7.44,0,14.16,2.94,18.92,8.27,3.89,4.35,6.31,10.1,7.27,17.16,7.81.88,12.62,4.62,15.37,7.82,9.47,11,8.6,30.73,3.69,63.28-.15,1.01-.43,2.57-.79,4.55-.52,2.91-1.73,9.7-1.84,11.47-.24,22.13-4.57,62.79-30.83,87.06-1.87,1.73-3.23,3.97-3.94,6.47-1.99,7.04-5.89,20.47-9.67,31.19-3.53,10.02-13.03,16.75-23.64,16.75h0Z"/>
        <path class="cls-27" d="m2458.05,230.09c-2.99.1-5.35,1.31-7.23,3.29l.13-.18c2.99-26.26-10.03-28.35-14.74-28.35-2.92,0-8.15.33-12.01,4.89-.3-3.7-2.37-13.03-15.39-13.74-15.25-.83-18.24,10.94-19.23,20.5-2.47-2.98-6.42-5.3-12.74-5.09-16.84.58-17.18,30.9-17.18,30.9,0,16.25-1.37,31.33-3.64,45.18l-.58-.66s-8.12-14.24-13.37-18.63c-4.58-3.84-20.04-6.43-24.33,8.56-4.21,14.69,23.19,36.83,24.59,61.7h0c-7.89,20.7-16.8,35.88-22.86,44.94-3.52,5.26-1.46,12.41,4.32,14.98l81.43,36.34c7.25,3.24,15.71-.42,18.34-7.91,3.52-9.99,7.21-22.58,9.45-30.5,1.28-4.5,3.75-8.58,7.19-11.76,24.72-22.85,27-64.51,27.15-78.83.03-3.03,2.29-14.55,2.75-17.53,6.35-42.12,4.92-58.65-12.06-58.08Z"/>
        <path class="cls-24" d="m2472.3,230.96c-3.35-3.77-8.19-5.57-14.41-5.36-.7.02-1.37.1-2.02.21-.03-8.56-2.02-15.11-5.95-19.52-3.42-3.83-8.29-5.94-13.71-5.94-3.54,0-6.67.67-9.38,1.93-3.43-7.27-10.89-10.39-17.78-10.77-11.89-.66-19.47,5.12-22.63,17.14-2.56-1.13-5.76-1.86-9.74-1.73-6.29.22-14.71,3.67-19.08,18.93-2.33,8.14-2.44,16.09-2.45,16.47,0,11.42-.7,22.26-1.92,32.5-2.62-3.86-5.67-7.88-8.27-10.06-3.76-3.15-11.6-5.31-18.72-3.12-4.42,1.36-10.24,4.87-12.83,13.9-2.63,9.17,3.43,18.94,10.44,30.25,6.06,9.77,12.89,20.81,13.88,31.9-7.86,20.42-16.59,35.11-22.01,43.23-2.42,3.61-3.11,8.08-1.91,12.25,1.2,4.17,4.17,7.58,8.13,9.35l81.43,36.34c2.33,1.04,4.85,1.56,7.36,1.56,2.43,0,4.86-.49,7.13-1.46,4.63-1.99,8.25-5.86,9.93-10.62,3.49-9.89,7.11-22.19,9.54-30.78,1.05-3.73,3.1-7.08,5.92-9.68,11.27-10.42,19.39-25.51,24.11-44.85,3.54-14.5,4.39-28.26,4.48-37.24.02-1.78,1.26-8.74,1.93-12.49.34-1.92.63-3.53.76-4.42,5.28-34.95,4.69-50.1-2.25-57.89Zm-140.79,70.06c-5.64-9.1-10.97-17.69-9.44-23.02,1.18-4.13,3.48-6.75,6.81-7.77,4.19-1.29,8.87.22,10.31,1.42,3.26,2.72,8.97,11.57,12.04,16.89-2.12,12.33-4.96,23.65-8.16,33.87-3.05-7.63-7.46-14.77-11.56-21.38Zm134.14-13.52c-.13.84-.4,2.36-.72,4.18-1.16,6.49-2.05,11.63-2.07,13.98-.16,15.73-2.98,54.58-25.7,75.58-4.03,3.73-6.96,8.51-8.47,13.84-2.39,8.46-5.96,20.57-9.37,30.23-.86,2.43-2.63,4.33-4.99,5.35-2.35,1.01-4.93.99-7.27-.05l-81.43-36.34c-1.54-.69-2.69-2.01-3.15-3.62-.47-1.62-.2-3.35.74-4.75,5.66-8.46,14.76-23.79,22.95-45.08.27-.44.46-.93.56-1.46,9.39-24.86,17.43-57.64,17.43-97.01,0-.26.68-26.04,12.83-26.46,3.4-.12,6.04.66,8.01,2.35-.91,20.59-4.91,61.86-4.95,62.29-.24,2.47,1.57,4.67,4.04,4.91.15.01.29.02.44.02,2.29,0,4.25-1.74,4.47-4.06.18-1.81,4.31-44.46,5.06-64.6,1.3-12.25,5.35-16.82,14.5-16.33,7.58.41,10.19,4.36,10.94,8.12-2.51,3.74-4.04,8.68-4.48,14.76-1.27,17.74-5.05,60.72-5.09,61.15-.22,2.48,1.61,4.66,4.09,4.88.13.01.27.02.4.02,2.31,0,4.27-1.76,4.48-4.11.04-.43,3.83-43.48,5.1-61.3.21-2.96.57-7.91,3.49-11.22.06-.07.12-.13.18-.2,1.78-1.91,4.46-3.24,8.54-3.24,2,0,4.83.51,6.99,2.93,3.09,3.46,4.26,10.04,3.41,19.05-5.72,7.1-7,19.09-7.73,26-1.06,9.97-4.46,29.83-4.5,30.02-.42,2.45,1.22,4.78,3.67,5.2,2.45.42,4.78-1.22,5.2-3.67.14-.83,3.48-20.34,4.58-30.59,1.73-16.2,4.92-23.5,10.37-23.69,4.62-.16,6.42,1.27,7.38,2.35,5.8,6.52,3.29,29.22.07,50.56Z"/>
      </g>
    </g>
    <g id="Stay_cool" data-name="Stay cool">
      <g>
        <path class="cls-33" d="m2190.32,584.5c-6.43-1.85-13.13-2.79-19.91-2.79-25.24,0-50.92,12.76-73.29,35.81-11.1-16.61-25.92-28-43.41-33.02-6.43-1.85-13.13-2.79-19.91-2.79-24.43,0-49.47,12.1-71.44,33.97-10.97-15.61-25.35-26.37-42.12-31.19-6.43-1.85-13.13-2.79-19.91-2.79-25.72,0-52.57,13.59-75.61,38.28-21.55,23.08-38.96,55.1-49.03,90.15-11.36,39.54-12.74,79.7-3.88,113.08,9.83,37,31.02,61.91,59.66,70.14,6.43,1.85,13.13,2.79,19.91,2.79,24.43,0,49.47-12.1,71.44-33.97,10.97,15.61,25.35,26.37,42.13,31.19,6.43,1.85,13.13,2.79,19.91,2.79,25.24,0,50.91-12.76,73.29-35.81,11.1,16.61,25.92,28,43.41,33.02,6.43,1.85,13.13,2.79,19.91,2.79h.01c25.71,0,52.56-13.59,75.6-38.28,21.55-23.08,38.96-55.1,49.03-90.15,24.89-86.6.38-167.08-55.79-183.22Z"/>
        <path class="cls-24" d="m2121.57,880.17c-5.29,0-10.51-.72-15.59-2.18-19.53-5.61-35.33-22.05-44.59-46.34-12.91,17.66-27.86,31.32-43.29,39.53-16.61,8.84-33.45,11.2-48.72,6.81-19-5.46-34.03-20.52-43.51-43.59-27.16,35.71-60.73,51.99-89.96,43.59-23.03-6.62-40.29-27.52-48.62-58.87-8.13-30.62-6.79-67.75,3.79-104.55,10.58-36.8,29.15-68.98,52.3-90.61,23.7-22.14,49.43-30.69,72.45-24.07,19,5.46,34.03,20.52,43.51,43.59,27.16-35.71,60.72-51.99,89.96-43.59,19.53,5.61,35.33,22.05,44.59,46.34,12.91-17.66,27.86-31.32,43.29-39.54,16.6-8.84,33.45-11.2,48.72-6.81,23.03,6.62,40.29,27.52,48.62,58.87,8.13,30.62,6.79,67.75-3.79,104.55-10.58,36.8-29.15,68.98-52.3,90.61-18.47,17.25-38.17,26.26-56.87,26.26Zm-59.98-57.31c.33,0,.66.02.99.07,2.67.36,4.91,2.17,5.85,4.7,8.3,22.53,22.42,37.68,39.76,42.67,42.52,12.21,94.04-36.77,114.85-109.21,20.82-72.43,3.16-141.3-39.35-153.52-26.64-7.65-58.86,9.35-84.08,44.39-1.58,2.2-4.24,3.34-6.92,2.98-2.67-.36-4.91-2.17-5.85-4.7-8.29-22.53-22.42-37.68-39.76-42.67-26.19-7.53-56.88,8.06-82.1,41.7-1.59,2.11-4.2,3.21-6.81,2.86-2.6-.35-4.83-2.08-5.8-4.53-8.5-21.35-21.91-35.19-38.76-40.03-42.52-12.22-94.04,36.77-114.85,109.21-10.18,35.43-11.51,71.05-3.75,100.29,7.58,28.52,22.88,47.42,43.1,53.23,26.2,7.53,56.88-8.06,82.1-41.7,1.59-2.12,4.19-3.21,6.81-2.86,2.6.35,4.83,2.08,5.8,4.53,8.5,21.35,21.91,35.19,38.76,40.03,26.64,7.66,58.86-9.35,84.08-44.39,1.39-1.93,3.6-3.04,5.93-3.04Z"/>
      </g>
      <g>
        <g>
          <ellipse class="cls-27" cx="1925.37" cy="775.26" rx="32.27" ry="23.23" transform="translate(766.81 2497.41) rotate(-78)"/>
          <path class="cls-24" d="m1922.13,811.68c-1.47,0-2.94-.15-4.41-.46-14.96-3.18-23.7-21.9-19.48-41.73,4.21-19.83,19.8-33.38,34.77-30.2,14.96,3.18,23.7,21.9,19.48,41.73h0c-3.8,17.89-16.86,30.66-30.37,30.66Zm6.46-63.85c-9.2,0-18.68,10.06-21.54,23.53-3.13,14.72,2.62,28.94,12.55,31.05,9.93,2.11,20.97-8.54,24.1-23.27,3.13-14.72-2.62-28.94-12.55-31.05-.84-.18-1.7-.27-2.55-.27Z"/>
        </g>
        <path class="cls-24" d="m1937.78,755.16c-8.14-1.73-16.69,6.03-19.09,17.34-2.4,11.31,2.25,21.87,10.39,23.6,8.14,1.73,16.69-6.03,19.09-17.34,2.4-11.31-2.25-21.87-10.39-23.6Z"/>
        <g>
          <ellipse class="cls-27" cx="1975.21" cy="776.65" rx="32.27" ry="23.23" transform="translate(804.92 2547.26) rotate(-78)"/>
          <path class="cls-24" d="m2000.14,755.93c-3.62-8.23-9.76-13.65-17.29-15.25-7.52-1.6-15.33.85-22,6.9-6.25,5.68-10.79,13.95-12.77,23.3-4.21,19.83,4.53,38.55,19.48,41.73,1.5.32,3.02.48,4.53.48,6.07,0,12.13-2.54,17.46-7.38,6.25-5.68,10.79-13.95,12.77-23.3,1.99-9.35,1.21-18.75-2.2-26.48Zm-6.61,24.61c-1.6,7.52-5.16,14.09-10.02,18.51-4.46,4.05-9.46,5.74-14.07,4.76-9.93-2.11-15.68-16.33-12.55-31.05,1.6-7.52,5.16-14.09,10.02-18.51,3.63-3.3,7.62-5.03,11.47-5.03.88,0,1.75.09,2.6.27,4.62.98,8.5,4.56,10.92,10.07,2.65,6.02,3.23,13.47,1.63,20.98Z"/>
        </g>
        <ellipse class="cls-24" cx="1983.27" cy="777.02" rx="20.93" ry="15.07" transform="translate(810.94 2555.44) rotate(-78)"/>
      </g>
      <g id="Ice_cream" data-name="Ice cream">
        <g class="cls-5">
          <path class="cls-7" d="m2202.75,738.12l-108.32-39.46c-6.78-2.47-14.02,2.33-14.39,9.54l-10.01,195.9c-.54,10.56,12.9,15.46,19.28,7.02l118.34-156.44c4.36-5.76,1.9-14.09-4.89-16.56Z"/>
          <g>
            <rect class="cls-27" x="2121.97" y="666.85" width="9" height="241.4" transform="translate(-51.46 1418.99) rotate(-36.49)"/>
            <rect class="cls-27" x="2110.76" y="715.31" width="9" height="241.4" transform="translate(-82.48 1421.81) rotate(-36.49)"/>
            <rect class="cls-27" x="2093.46" y="754.57" width="9" height="241.4" transform="translate(-109.22 1419.23) rotate(-36.49)"/>
            <rect class="cls-27" x="2003.41" y="750.24" width="241.4" height="9" transform="translate(-86.14 1197.77) rotate(-30.9)"/>
            <rect class="cls-27" x="1995.13" y="799.28" width="241.4" height="9" transform="translate(-112.5 1200.47) rotate(-30.9)"/>
            <rect class="cls-27" x="1996" y="842.18" width="241.4" height="9" transform="translate(-134.4 1207.01) rotate(-30.9)"/>
          </g>
        </g>
        <g class="cls-2">
          <path class="cls-27" d="m2251.4,701.31c16.07-44.12-9.61-94-57.35-111.39-47.76-17.4-99.49,4.28-115.56,48.4-6.12,16.81-6.18,34.45-1.26,50.81-.32.24-.64.51-.95.79-8.11,7.47-2.18,25.07,10.85,23.95,2.76-.24,4.9-1.79,6.77-3.51.81-.74,2.1-1.77,3.02-2.76.72,1.81,1.72,3.7,1.95,4.07,1.83,2.92,4.37,5.07,7.5,6.68,5.78,2.97,12.22,2.99,18.31,1.69.94-.2,2.87-1.01,3.96-.98,1.2.04,1.8-.01,2.09-.07-.08.14-.04.42.5.97.61.62.81,3.17,1.3,4.08.82,1.52,2.05,2.85,3.39,3.98,4.46,3.75,10.12,4.55,15.7,4,1.44-.14,3.04-.61,4.62-.92.01.06.01.11.02.17,2.24,11.88,13.31,12.91,23.25,11.23.52.67,1.1,1.29,1.75,1.83,2.38,1.97,5.51,2.81,8.57,2.58,1.63-.12,3.04-.89,4.39-1.74,1.36,3.26,3.62,6.12,6.84,7.64,3.05,2.16,7.05,3.42,10.7,2.58,6.6-1.51,9.06-8.23,6.63-13.51,14.91-9.39,26.71-23.24,33.02-40.56Z"/>
          <g>
            <path class="cls-24" d="m2136.92,642.09c-.78-2.81-1.56-5.62-2.33-8.43-.72-2.6-3.09-4.83-6-4.18-2.52.56-4.95,3.21-4.18,6,.78,2.81,1.56,5.62,2.33,8.43.72,2.6,3.09,4.83,6,4.18,2.52-.56,4.95-3.21,4.18-6Z"/>
            <path class="cls-24" d="m2186.48,671.79c1.42-2.55,2.85-5.09,4.27-7.64,1.32-2.35,1.2-5.61-1.32-7.19-2.19-1.37-5.78-1.2-7.19,1.32-1.42,2.55-2.85,5.09-4.27,7.64-1.32,2.35-1.2,5.61,1.32,7.19,2.19,1.37,5.78,1.2,7.19-1.32Z"/>
            <path class="cls-24" d="m2167.11,635.41c-1.93-.1-3.86-.2-5.79-.3-2.32-.12-4.52,2.13-4.42,4.43.11,2.5,1.96,4.29,4.43,4.42,1.93.1,3.86.2,5.79.3,2.32.12,4.52-2.13,4.42-4.43-.11-2.5-1.96-4.29-4.43-4.42Z"/>
            <path class="cls-24" d="m2226.56,669.99c-1.61-1.07-3.21-2.15-4.82-3.22-1.93-1.29-4.97-.48-6.06,1.55-1.18,2.21-.51,4.69,1.55,6.06,1.61,1.07,3.21,2.15,4.82,3.22,1.93,1.29,4.97.48,6.06-1.55,1.18-2.21.51-4.69-1.55-6.06Z"/>
            <path class="cls-24" d="m2239.82,642.64l-7.31-1.43c-2.28-.45-4.71,1.77-4.82,4-.12,2.6,1.56,4.34,4,4.82l7.31,1.43c2.28.45,4.71-1.77,4.82-4,.12-2.6-1.56-4.34-4-4.82Z"/>
            <path class="cls-24" d="m2137.13,608.43c.23-2.18-1.54-4.87-3.95-4.86-4.39.03-8.78.17-13.17.44-2.39.15-4.03,2.86-3.68,5.06.4,2.55,2.67,3.83,5.06,3.68,3.62-.22,7.25-.35,10.88-.38,2.39-.01,4.59-1.38,4.86-3.95Z"/>
          </g>
        </g>
        <g>
          <path class="cls-30" d="m2231.42,612.9c-1.57,2.52-3.38,4.79-5.36,6.86-13.36,13.82-34.95,16.94-51.87,6.37-16.95-10.6-23.6-31.38-17.03-49.44,1-2.68,2.25-5.3,3.82-7.82,3.33-5.33,10.46-16.73,25.66-17.94,19.97-1.6,26.53,12.85,26.53,12.85,0,0,15.66-.38,23.13,18.21,5.65,14.05-2.28,26.74-4.89,30.92Z"/>
          <path class="cls-24" d="m2217.35,531.21c-1.89-5.36-9.91-1.6-8.02,3.74,3.96,11.2,4.63,24.94-4.75,33.69-4.15,3.88,1.48,10.71,5.65,6.81,12.54-11.71,12.49-29.04,7.12-44.25Z"/>
        </g>
      </g>
      <g id="Text-11" data-name="Text">
        <text class="cls-26" transform="translate(1825.89 806.85)"><tspan x="0" y="0" xml:space="preserve">C     L</tspan></text>
        <text class="cls-26" transform="translate(1834.83 731.54)"><tspan x="0" y="0">S</tspan><tspan class="cls-36" x="46.34" y="0">T</tspan><tspan class="cls-21" x="86.01" y="0">A</tspan><tspan x="136.11" y="0">Y</tspan></text>
      </g>
    </g>
  </g>
</svg>